<?xml version="1.0" encoding="utf-8"?>
<!-- Generator: Adobe Illustrator 25.1.0, SVG Export Plug-In . SVG Version: 6.00 Build 0)  -->
<svg version="1.1" id="Layer_1" xmlns="http://www.w3.org/2000/svg" xmlns:xlink="http://www.w3.org/1999/xlink" x="0px" y="0px"
	 viewBox="0 0 512 512" style="enable-background:new 0 0 512 512;" xml:space="preserve">
<g id="Capa_1">
	<g>
		<g>
			<path d="M448,96v160c0,52.9-43.1,96-96,96H209.8l-70.4,60.3c6.5,2.2,13.4,3.7,20.6,3.7h154.1l107.5,92.2c3,2.5,6.7,3.8,10.4,3.8
				c2.3,0,4.6-0.5,6.7-1.5c5.7-2.6,9.3-8.3,9.3-14.5v-80c35.3,0,64-28.7,64-64V160C512,124.7,483.3,96,448,96z"/>
		</g>
	</g>
</g>
<g id="Layer_2_1_">
	<g>
		<path d="M309.1,117.1c-9.5,0-17.3,3.3-23.4,10c-6.1,6.7-9.1,15.3-9.1,25.8c0,10.7,2.9,19.5,8.7,26.4c5.8,6.9,13.1,10.3,22,10.3
			c3.3,0,7.2-0.4,11.8-1.1l-12.3-14.6l16.5-10.8l11.3,13.3c4.6-5.1,6.9-12.5,6.9-22.3c0-11.3-3-20.3-8.9-27
			C326.8,120.4,318.9,117.1,309.1,117.1z"/>
		<polygon points="170.8,167.8 198.6,167.8 184.5,133.4 		"/>
		<path d="M352,0H64C28.7,0,0,28.7,0,64v192c0,35.3,28.7,64,64,64v80c0,6.2,3.6,11.9,9.3,14.5c2.1,1,4.4,1.5,6.7,1.5
			c3.7,0,7.5-1.3,10.4-3.8L197.9,320H352c35.3,0,64-28.7,64-64V64C416,28.7,387.3,0,352,0z M125.7,117.8H85v23.8h40.7v22.8H85.1
			v47.5H60V95.2h65.7V117.8z M216.5,211.9l-9.3-22.9h-44.8l-9.1,22.9h-25.2l46.7-116.7h19.5l47.5,116.7H216.5z M365.7,212.8
			l-17,10.8l-13.1-15.8c-9.8,3.6-18.6,5.4-26.4,5.4c-17.2,0-31.4-5.7-42.4-17.2s-16.6-26.2-16.6-44.1c0-14.8,5.4-28.2,16.1-40.1
			c10.8-11.9,25-17.9,42.7-17.9c16.6,0,30.6,5.7,41.9,17.1s17,25.4,17,42c0,17.1-5.6,31.5-16.7,43.4L365.7,212.8z"/>
	</g>
</g>
</svg>
