<?xml version="1.0" encoding="utf-8"?>
<!-- Generator: Adobe Illustrator 25.1.0, SVG Export Plug-In . SVG Version: 6.00 Build 0)  -->
<svg version="1.1" xmlns="http://www.w3.org/2000/svg" xmlns:xlink="http://www.w3.org/1999/xlink" x="0px" y="0px"
	 viewBox="0 0 512 512" style="enable-background:new 0 0 512 512;" xml:space="preserve">
<g id="Layer_2">
</g>
<g id="Layer_5">
	<path d="M509.5,49.4l-47.4-47c-3.1-3.1-8.7-3.1-11.8,0l-30.7,30.5l59.2,58.8l30.7-30.5c1.6-1.6,2.5-3.7,2.5-5.9
		C512,53,511.1,50.9,509.5,49.4z"/>
	<path d="M442,128.2l25-24.8l-59.2-58.8l-80.9,80.3h97.1C430.3,124.9,436.4,126.1,442,128.2z"/>
</g>
<g id="Layer_4">
	<path d="M442,128.2L324.8,244.4l-59.2-58.8l61.2-60.8H47.1c-25.5,0-47.1,19-47.1,41.5v228.1C0,417,21.6,436,47.1,436h62.8v69.1
		c0,2.9,2,5.4,5,6.4c0.9,0.3,1.9,0.5,2.8,0.5c2.2,0,4.3-0.8,5.8-2.3l76.2-73.8h224.2c25.5,0,47.1-19,47.1-41.5V166.4
		C471,149.5,458.8,134.6,442,128.2z M226.4,273l19.3-66.1c0.4-1.3,1.1-2.6,2.1-3.6l5.9-5.9l59.2,58.8L307,262c-1,1-2.2,1.7-3.6,2.1
		l-66.7,19.1c-0.8,0.2-1.6,0.3-2.3,0.3c-2.2,0-4.3-0.9-5.9-2.4C226.4,279,225.6,275.9,226.4,273z M76.9,211.6h133.3
		c5.5,0,10,4.5,10,10s-4.5,10-10,10H76.9c-5.5,0-10-4.5-10-10S71.4,211.6,76.9,211.6z M76.9,266.6h133.3c4.8,0,8.8,3.4,9.8,7.9
		c0.3,0.8,0.5,1.6,0.5,2.5c0,1.4-0.4,2.8-1.2,3.9c-1.6,3.4-5,5.8-9,5.8H76.9c-5.5,0-10-4.5-10-10S71.4,266.6,76.9,266.6z
		 M384.8,342.4H76.9c-5.5,0-10-4.5-10-10s4.5-10,10-10h307.9c5.5,0,10,4.5,10,10S390.4,342.4,384.8,342.4z"/>
</g>
</svg>
