<?xml version="1.0" encoding="utf-8"?>
<!-- Generator: Adobe Illustrator 25.1.0, SVG Export Plug-In . SVG Version: 6.00 Build 0)  -->
<svg version="1.1" id="Capa_1" xmlns="http://www.w3.org/2000/svg" xmlns:xlink="http://www.w3.org/1999/xlink" x="0px" y="0px"
	 viewBox="0 0 512 512" style="enable-background:new 0 0 512 512;" xml:space="preserve">
<path d="M90.3,330H241v58.3h30V330h150.7v58.3h30v-88.7H271v-53.3h-30v53.3H60.3v88.7h30V330z"/>
<path d="M416.4,0H95.6C80.7,0,68.7,13.4,68.7,29.9v177c0,16.5,12,29.8,26.9,29.8h320.8c14.9,0,26.9-13.4,26.9-29.8V29.8
	C443.3,13.4,431.3,0,416.4,0z M408.5,180.8h-297c-4.9,0-8.9-4.1-8.9-9.1c0-5,4-9.1,8.9-9.1h297c4.9,0,8.9,4.1,8.9,9.1
	C417.4,176.7,413.4,180.8,408.5,180.8z M408.5,126.3h-297c-4.9,0-8.9-4.1-8.9-9.1s4-9.1,8.9-9.1h297c4.9,0,8.9,4.1,8.9,9.1
	S413.4,126.3,408.5,126.3z M408.5,71.7h-297c-4.9,0-8.9-4.1-8.9-9.1s4-9.1,8.9-9.1h297c4.9,0,8.9,4.1,8.9,9.1S413.4,71.7,408.5,71.7
	z"/>
<path d="M131.9,396.7H26.2C11.8,396.7,0,412.4,0,431.8v44.9C0,496.3,11.8,512,26.2,512h105.7c14.5,0,26.2-15.9,26.2-35.2V432
	C158.2,412.4,146.4,396.7,131.9,396.7z M131.7,479.2h-105c-2.9,0-5.2-2.9-5.2-6.6s2.3-6.6,5.2-6.6h105c2.9,0,5.2,2.9,5.2,6.6
	S134.6,479.2,131.7,479.2z M131.7,442.6h-105c-2.9,0-5.2-2.9-5.2-6.6s2.3-6.6,5.2-6.6h105c2.9,0,5.2,2.9,5.2,6.6
	S134.6,442.6,131.7,442.6z"/>
<path d="M308.9,396.7H203.1c-14.5,0-26.2,15.7-26.2,35.1v44.9c0,19.5,11.8,35.2,26.2,35.2h105.7c14.5,0,26.2-15.9,26.2-35.2V432
	C335.1,412.4,323.3,396.7,308.9,396.7z M307.9,479.2h-105c-2.9,0-5.2-2.9-5.2-6.6s2.3-6.6,5.2-6.6h105c2.9,0,5.2,2.9,5.2,6.6
	S310.8,479.2,307.9,479.2z M307.9,442.6h-105c-2.9,0-5.2-2.9-5.2-6.6s2.3-6.6,5.2-6.6h105c2.9,0,5.2,2.9,5.2,6.6
	S310.8,442.6,307.9,442.6z"/>
<path d="M485.8,396.7H380.1c-14.5,0-26.2,15.7-26.2,35.1v44.9c0,19.5,11.8,35.2,26.2,35.2h105.7c14.5,0,26.2-15.9,26.2-35.2V432
	C512,412.4,500.2,396.7,485.8,396.7z M486.3,479.2h-105c-2.9,0-5.2-2.9-5.2-6.6s2.3-6.6,5.2-6.6h105c2.9,0,5.2,2.9,5.2,6.6
	S489.2,479.2,486.3,479.2z M486.3,442.6h-105c-2.9,0-5.2-2.9-5.2-6.6s2.3-6.6,5.2-6.6h105c2.9,0,5.2,2.9,5.2,6.6
	S489.2,442.6,486.3,442.6z"/>
</svg>
