<?xml version="1.0" encoding="UTF-8" standalone="no"?>
<svg
   xmlns:dc="http://purl.org/dc/elements/1.1/"
   xmlns:cc="http://creativecommons.org/ns#"
   xmlns:rdf="http://www.w3.org/1999/02/22-rdf-syntax-ns#"
   xmlns:svg="http://www.w3.org/2000/svg"
   xmlns="http://www.w3.org/2000/svg"
   xmlns:sodipodi="http://sodipodi.sourceforge.net/DTD/sodipodi-0.dtd"
   xmlns:inkscape="http://www.inkscape.org/namespaces/inkscape"
   width="207.833pt"
   version="1.1"
   height="432pt"
   viewBox="0 0 207.833 432"
   id="svg4336"
   inkscape:version="0.48.4 r9939"
   sodipodi:docname="Coat_of_arms_of_Penang.svg">
  <metadata
     id="metadata4481">
    <rdf:RDF>
      <cc:Work
         rdf:about="">
        <dc:format>image/svg+xml</dc:format>
        <dc:type
           rdf:resource="http://purl.org/dc/dcmitype/StillImage" />
        <dc:title>Penang Coat of arms</dc:title>
      </cc:Work>
    </rdf:RDF>
  </metadata>
  <sodipodi:namedview
     pagecolor="#ffffff"
     bordercolor="#666666"
     borderopacity="1"
     objecttolerance="10"
     gridtolerance="10"
     guidetolerance="10"
     inkscape:pageopacity="0"
     inkscape:pageshadow="2"
     inkscape:window-width="1024"
     inkscape:window-height="538"
     id="namedview4479"
     showgrid="false"
     inkscape:zoom="1.3"
     inkscape:cx="108.52288"
     inkscape:cy="171.46158"
     inkscape:window-x="-8"
     inkscape:window-y="-8"
     inkscape:window-maximized="1"
     inkscape:current-layer="svg4336" />
  <title
     id="title4338">Penang Coat of arms</title>
  <defs
     id="defs4340">
    <clipPath
       id="Clip0">
      <path
         d="M0 0 L207.833 0 L207.833 432.304 L0 432.304 L0 0 Z"
         transform="translate(0, -0.3037)"
         id="path4343" />
    </clipPath>
    <clipPath
       id="Clip1">
      <path
         d="M0 0 L207.833 0 L207.833 277.123 L0 277.123 L0 0 Z"
         transform="translate(0, 154.877)"
         id="path4346" />
    </clipPath>
    <clipPath
       id="Clip2">
      <path
         d="M0 0 L169.084 0 L169.084 44.1279 L0 44.1279 L0 0 Z"
         transform="translate(21.0034, 371.898)"
         id="path4349" />
    </clipPath>
    <clipPath
       id="Clip3">
      <path
         d="M0 0 L157.053 0 L157.053 223.116 L0 223.116 L0 0 Z"
         transform="translate(25.4199, 160.096)"
         id="path4352" />
    </clipPath>
    <clipPath
       id="Clip4">
      <path
         d="M0 0 L114.403 0 L114.403 149.418 L0 149.418 L0 0 Z"
         transform="translate(44.9316, -0.3037)"
         id="path4355" />
    </clipPath>
    <clipPath
       id="Clip5">
      <path
         d="M0 0 L157.046 0 L157.046 122.758 L0 122.758 L0 0 Z"
         transform="translate(25.4262, 237.119)"
         id="path4358" />
    </clipPath>
  </defs>
  <g
     id="1">
    <g
       id="Group6"
       clip-path="url(#Clip0)">
      <g
         id="Group3"
         clip-path="url(#Clip1)">
        <path
           style="fill:#161413; fill-rule:nonzero;stroke:none;"
           d="M103.916 86.1729 C129.211 61.3213 169.897 55.3457 169.897 55.3457 L169.897 34.8711 C169.897 29.1738 173.257 27.1416 173.257 27.1416 L185.75 19.3457 C202.101 9.6631 207.833 0 207.833 0 L207.833 17.168 C207.833 28.5401 200.959 31.6572 197.605 34.043 C194.252 36.4278 190.984 40.4014 190.984 40.4014 C198.739 44.4434 197.904 49.9502 197.904 49.9502 L197.904 69.9014 C197.904 73.8008 195.518 75.6328 192.685 75.9649 C154.687 80.419 128.536 92.3057 103.916 119.14 C79.2973 92.3057 53.1465 80.419 15.1479 75.9649 C12.3154 75.6328 9.9287 73.8008 9.9287 69.9014 L9.9287 49.9502 C9.9287 49.9502 9.0932 44.4434 16.8481 40.4014 C16.8481 40.4014 13.5815 36.4278 10.2275 34.043 C6.8735 31.6572 0 28.5401 0 17.168 L0 0 C0 0 5.7329 9.6631 22.083 19.3457 L34.5766 27.1416 C34.5766 27.1416 37.9365 29.1738 37.9365 34.8711 L37.9365 55.3457 C37.9365 55.3457 78.6221 61.3213 103.916 86.1729 Z"
           transform="translate(0, 312.86)"
           id="path4363" />
        <path
           style="fill:#161413; fill-rule:nonzero;stroke:none;"
           d="M83.645 234.401 C95.8838 226.682 167.29 177.69 167.29 85.4946 L167.29 0 L0 0.0064 L0 85.5005 C0 177.698 71.4067 226.682 83.645 234.401 Z"
           transform="translate(20.2715, 154.877)"
           id="path4365" />
        <path
           style="fill:#ffff00;fill-rule:nonzero;stroke:none"
           d="M0 0 C0 0 7.4478 7.7929 28.4029 20.0029 C31.106 21.5781 33.5811 25.3984 29.3218 27.205 L17.5786 31.665 C17.5786 31.665 16.4033 30.0166 10.273 25.1289 C4.1421 20.2412 0 19.5068 0 11.0127 L0 0 Z"
           transform="translate(2.4399, 320.375)"
           id="path4367" />
        <path
           style="fill:#ffff00;fill-rule:nonzero;stroke:none"
           d="M22.959 19.3672 L22.959 0 C22.959 0 11.5142 4.0098 2.398 8.5449 C0 9.7373 0.211 13.1562 2.4551 14.0225 C4.6993 14.8877 15.0308 18.1211 22.959 19.3672 Z"
           transform="translate(12.956, 348.394)"
           id="path4369" />
        <path
           style="fill:#ffff00;fill-rule:nonzero;stroke:none"
           d="M33.5811 0 C33.5811 0 26.1328 7.7929 5.1787 20.0029 C2.4766 21.5781 0 25.3984 4.2598 27.205 L16.0029 31.665 C16.0029 31.665 17.1787 30.0166 23.3096 25.1289 C29.4395 20.2412 33.5811 19.5068 33.5811 11.0127 L33.5811 0 Z"
           transform="translate(171.812, 320.375)"
           id="path4371" />
        <path
           style="fill:#ffff00;fill-rule:nonzero;stroke:none"
           d="M0 19.3672 L0 0 C0 0 11.4454 4.0098 20.5606 8.5449 C22.959 9.7373 22.7481 13.1562 20.504 14.0225 C18.2598 14.8877 7.9288 18.1211 0 19.3672 Z"
           transform="translate(171.918, 348.394)"
           id="path4373" />
        <path
           style="fill:#ffff00;fill-rule:nonzero;stroke:none"
           d="M91.5049 64.6221 C125.661 30.4668 151.201 28.2803 180.362 22.5499 C181.996 22.2286 183.01 20.5694 183.01 18.8985 L183.01 0 C170.767 7.2471 122.848 6.2188 91.5049 38.7276 C60.1616 6.2188 12.2432 7.2471 0 0 L0 18.8985 C0 20.5694 1.0132 22.2286 2.648 22.5499 C31.8091 28.2803 57.3491 30.4668 91.5049 64.6221 Z"
           transform="translate(12.4116, 363.863)"
           id="path4375" />
        <g
           id="Group1"
           clip-path="url(#Clip2)">
          <path
             style="fill:#161413; fill-rule:nonzero;stroke:none;"
             d="M4.3262 6.3272 C5.9731 6.6016 6.5078 6.7793 7.0625 7.0479 C7.9087 7.4697 8.6558 8.1758 8.4214 9.583 C8.0391 11.8818 5.938 11.6904 4.8062 11.5029 C3.811 11.3369 3.5137 11.2178 3.6191 10.583 L4.3262 6.3272 Z M1.8335 0.3252 C3.229 0.6279 3.4351 0.873 3.2236 2.1426 L1.9575 9.7598 C1.7554 10.9775 1.501 11.2354 0.0537 11.0303 L0 11.3564 L5.73 12.3086 C9.5381 12.9414 10.2744 10.6309 10.3828 9.9795 C10.6821 8.1777 9.4473 7.127 8.0059 6.5693 L8.0112 6.5352 C8.8149 6.4756 10.3872 6.3477 10.7036 4.4443 C11.146 1.7852 8.1836 1.0459 6.6914 0.7979 L1.8882 0 L1.8335 0.3252 Z M5.0933 1.7129 C5.1362 1.4561 5.2104 1.2227 5.5532 1.2783 C5.7251 1.3076 5.9683 1.3301 6.3281 1.3897 C7.5464 1.5918 9.2759 2.2148 8.9365 4.2559 C8.5972 6.2979 6.5503 5.9922 6.0703 5.9131 L4.4375 5.6602 L5.0933 1.7129 Z"
             transform="translate(21.0034, 371.898)"
             id="path4378" />
          <path
             style="fill:#161413; fill-rule:nonzero;stroke:none;"
             d="M9.1328 13.3809 L0 11.1954 L0.0767 10.8741 C1.1753 11.0655 1.6011 11.0069 1.9121 9.7051 L3.7085 2.1954 C4.0283 0.8584 3.6465 0.6602 2.6016 0.3204 L2.6787 0 L11.6587 2.1475 L11.1313 4.5782 L10.7085 4.4776 C10.8144 2.9112 10.4394 2.5362 8.5625 2.086 L6.2788 1.5401 C5.9243 1.4561 5.7212 1.4073 5.5835 1.9815 L4.685 5.7364 L7.2895 6.3594 C8.7949 6.7198 9.0615 6.3536 9.5347 5.1973 L9.9233 5.2911 L8.9849 9.2149 L8.5957 9.1221 C8.7168 7.7198 8.5195 7.4229 7.1196 7.0694 L4.5234 6.4131 L3.52 10.6075 C3.3545 11.2998 3.3496 11.3174 5.8701 11.92 C7.9844 12.4268 8.9512 12.1211 10.104 10.5909 L10.5776 10.7041 L9.1328 13.3809 Z"
             transform="translate(32.7954, 374.08)"
             id="path4380" />
          <path
             style="fill:#161413; fill-rule:nonzero;stroke:none;"
             d="M6.1474 2.1777 C6.2978 1.6963 6.4829 1.6269 7.3633 1.9004 C8.0439 2.1133 10.2036 2.8388 9.5161 5.0478 C8.7778 7.4228 6.2768 6.6806 4.8769 6.2636 L6.1474 2.1777 Z M10.7578 13.9941 C10.0874 13.749 9.7822 13.3252 9.5561 12.7636 L7.4424 7.498 C8.3408 7.5957 10.624 7.8691 11.3164 5.6445 C12.1118 3.0869 9.4804 1.8857 8.0024 1.4258 L3.4194 0 L3.3213 0.3154 C4.4477 0.7929 4.6504 1.0205 4.268 2.249 L2.0307 9.4384 C1.6435 10.6845 1.4687 11.0127 0.0976 10.6767 L0 10.9922 L4.5991 12.4238 L4.6972 12.1084 C3.3896 11.6289 3.3217 11.2617 3.6675 10.1494 L4.6855 6.8779 L5.6259 7.1328 L7.9863 13.4765 L10.6596 14.3095 L10.7578 13.9941 Z"
             transform="translate(43.6504, 376.895)"
             id="path4382" />
          <path
             style="fill:#161413; fill-rule:nonzero;stroke:none;"
             d="M9.4345 5.3867 L9.0293 5.2295 C9.27 3.793 8.8002 1.9307 7.0986 1.2695 C6.2885 0.9541 5.2666 1.1357 4.8759 2.1406 C3.9301 4.5713 9.2172 7 7.9252 10.3232 C7.3896 11.7002 5.6821 12.8281 3.3642 11.9258 C2.1328 11.4482 1.5532 10.5869 1.0669 10.3984 C0.7265 10.2666 0.457 10.4795 0.3559 10.7383 L0 10.5986 L0.8501 6.9736 L1.2226 7.1201 C1.2343 8.001 1.2412 10.4297 3.4296 11.2803 C4.7255 11.7842 5.7329 11.1123 6.0737 10.2373 C6.4331 9.3125 6.3881 8.6611 4.5478 6.3418 C3.3906 4.9023 2.6303 3.7861 3.2548 2.1816 C3.9736 0.333 5.8012 0 7.2597 0.5674 C8.2324 0.9453 8.893 1.8369 9.2983 1.9941 C9.7524 2.1709 9.978 1.8291 10.08 1.6631 L10.4199 1.7959 L9.4345 5.3867 Z"
             transform="translate(55.9385, 381.482)"
             id="path4384" />
          <path
             style="fill:#161413; fill-rule:nonzero;stroke:none;"
             d="M5.0981 5.5244 L8.9887 2.0987 L8.7104 7.2813 L5.0981 5.5244 Z M10.9507 12.9727 C10.2851 12.5928 10.1504 12.3135 10.2051 10.9287 L10.6318 0.1514 L10.3188 0 L3.3315 6.0957 C2.6992 6.6397 1.6596 7.545 1.1098 7.7608 C0.6836 7.9219 0.4028 7.8233 0.1445 7.7168 L0 8.0147 L3.0962 9.5215 L3.2407 9.2237 C2.9126 9.0635 2.1777 8.7061 2.4975 8.0498 C2.5805 7.878 2.7343 7.6817 2.9116 7.5157 L4.5205 6.0362 L8.6181 8.0284 L8.5283 9.8428 C8.5156 10.1065 8.4687 10.7217 8.3471 10.9727 C8.0649 11.5508 7.5415 11.3145 6.9629 11.0332 L6.8183 11.3311 L10.8066 13.2705 L10.9507 12.9727 Z"
             transform="translate(64.5044, 387.122)"
             id="path4386" />
          <path
             style="fill:#161413; fill-rule:nonzero;stroke:none;"
             d="M4.3672 13.707 L0 11.1172 L0.1685 10.833 C1.5649 11.5801 1.814 11.2627 2.4702 10.1562 L6.9067 2.6777 L6.0991 2.1982 C4.4536 1.2226 3.8813 1.2676 2.5854 2.7021 L2.2261 2.4892 L3.8242 0 L12.2598 5.0029 L10.8408 7.5996 L10.4824 7.3867 C11.144 5.5547 10.8848 5.0381 9.2397 4.0625 L8.4321 3.582 L3.8984 11.2246 C3.2949 12.2422 3.3057 12.6328 4.5356 13.4228 L4.3672 13.707 Z"
             transform="translate(76.6035, 390.124)"
             id="path4388" />
          <path
             style="fill:#161413; fill-rule:nonzero;stroke:none;"
             d="M15.2349 7.5381 C14.085 6.8379 13.6919 6.8662 12.5865 8.3193 L9.8389 11.9316 C8.9966 13.04 7.0171 15.6426 3.4326 12.915 C0 10.3037 2.0528 7.6055 2.6841 6.7744 L5.9688 2.4561 C6.7476 1.4316 6.6704 1.1318 5.6704 0.2637 L5.8706 0 L9.7876 2.9795 L9.5879 3.2422 C8.4312 2.4941 8.128 2.5469 7.3809 3.5303 L4.0122 7.96 C3.3384 8.8447 1.8745 10.7695 4.2832 12.6006 C5.3628 13.4219 6.4883 13.5791 7.3843 13.2334 C7.7964 13.0664 8.2823 12.7139 9.1353 11.5947 L11.9771 7.8565 C13.1035 6.375 12.9507 5.8877 12.024 5.0947 L12.2237 4.833 L15.4351 7.2744 L15.2349 7.5381 Z"
             transform="translate(84.9438, 396.34)"
             id="path4390" />
          <path
             style="fill:#161413; fill-rule:nonzero;stroke:none;"
             d="M3.4199 4.6514 C3.207 4.3779 3.0048 4.1153 3.6503 3.6153 C5.3818 2.2715 6.4404 2.0469 7.5576 2.126 C9.166 2.2422 10.3583 3.1006 11.2548 4.2539 C14.3554 8.252 10.9755 10.874 10.0957 11.5567 C9.4375 12.0674 9.1972 12.1006 8.8349 11.6319 L3.4199 4.6514 Z M7.0556 14.7285 L10.957 11.7031 C15.163 8.4404 14.1582 4.9063 12.7421 3.0781 C10.3535 0 7.0087 0.1963 3.7099 2.7549 L0 5.6328 L0.2026 5.8955 C1.3237 5.1563 1.582 5.1758 2.371 6.1934 L7.1035 12.293 C7.8496 13.2559 7.8554 13.6026 6.8535 14.4688 L7.0556 14.7285 Z"
             transform="translate(103.81, 401.298)"
             id="path4392" />
          <path
             style="fill:#161413; fill-rule:nonzero;stroke:none;"
             d="M2.0234 7.5156 L1.1064 2.4141 L5.3974 5.335 L2.0234 7.5156 Z M11.4267 6.3643 C10.7549 6.7363 10.4482 6.708 9.291 5.9434 L0.292 0 L0 0.1885 L1.5986 9.3223 C1.7363 10.1455 1.9726 11.5039 1.873 12.085 C1.789 12.5332 1.5586 12.7227 1.3349 12.8897 L1.5146 13.167 L4.4072 11.2969 L4.2275 11.0195 C3.9209 11.2178 3.2353 11.6602 2.8379 11.0479 C2.7334 10.8877 2.6455 10.6543 2.5947 10.417 L2.1631 8.2744 L5.9882 5.7998 L7.4941 6.8164 C7.7138 6.9639 8.2148 7.3223 8.3662 7.5557 C8.7158 8.0967 8.2441 8.4219 7.7031 8.7715 L7.8818 9.0488 L11.6064 6.6416 L11.4267 6.3643 Z"
             transform="translate(118.367, 395.852)"
             id="path4394" />
          <path
             style="fill:#161413; fill-rule:nonzero;stroke:none;"
             d="M10.8222 0.2911 C9.9111 0.9151 9.4531 1.2373 10.4101 3.0342 L14.7129 11.1055 L14.4531 11.2452 L3.2168 6.4336 L3.1875 6.4512 L6.3769 12.4356 C7.2187 14.0157 7.7226 14.1807 8.8672 13.6309 L9.0224 13.9219 L5.417 15.8448 L5.2597 15.5528 C6.3867 14.8545 6.5859 14.4522 5.7021 12.7959 L2.0947 6.0264 C1.0566 5.5957 0.7695 5.6494 0.1572 5.9766 L0 5.6866 L2.625 4.2871 L12.4375 8.5352 L12.4677 8.5176 L9.7343 3.3936 C8.7939 1.628 8.2988 1.7344 7.2148 2.2139 L7.0605 1.9229 L10.665 0 L10.8222 0.2911 Z"
             transform="translate(124.601, 386.622)"
             id="path4396" />
          <path
             style="fill:#161413; fill-rule:nonzero;stroke:none;"
             d="M7.4395 3.2891 L7.0381 3.4522 C6.2275 2.2432 4.6074 1.21 2.916 1.8956 C2.1103 2.2227 1.4912 3.0547 1.8965 4.0547 C2.875 6.4717 8.3887 4.6123 9.7285 7.9151 C10.2842 9.2862 9.8154 11.2774 7.5117 12.212 C6.2861 12.7071 5.2734 12.4795 4.79 12.6768 C4.4512 12.8135 4.4023 13.1524 4.5068 13.4112 L4.1523 13.5547 L2.2832 10.3331 L2.6533 10.1846 C3.2676 10.8165 4.9375 12.5782 7.1143 11.6963 C8.4023 11.1729 8.6758 9.9942 8.3223 9.1241 C7.9502 8.2061 7.4707 7.7618 4.5391 7.335 C2.7109 7.0831 1.3926 6.792 0.7441 5.1954 C0 3.3584 1.1006 1.8623 2.5518 1.2745 C3.5195 0.8829 4.6103 1.0782 5.0127 0.9131 C5.4658 0.7305 5.3945 0.3272 5.3555 0.1377 L5.6934 0 L7.4395 3.2891 Z"
             transform="translate(141.37, 381.347)"
             id="path4398" />
          <path
             style="fill:#161413; fill-rule:nonzero;stroke:none;"
             d="M12.4785 10.9033 L3.545 13.7949 L3.4434 13.4815 C4.4815 13.0713 4.8125 12.7998 4.4014 11.5264 L2.0225 4.1797 C1.5996 2.8731 1.17 2.9033 0.1016 3.1563 L0 2.8428 L8.7862 0 L9.6006 2.3487 L9.1875 2.4834 C8.4619 1.0908 7.9463 0.9658 6.1094 1.5596 L3.876 2.2822 C3.5293 2.3946 3.3301 2.459 3.5137 3.0225 L4.7012 6.6944 L7.2481 5.8701 C8.7217 5.3936 8.7588 4.9434 8.5606 3.709 L8.9414 3.585 L10.1836 7.4248 L9.8028 7.5488 C9.1748 6.2881 8.8526 6.1377 7.4737 6.5655 L4.9151 7.3555 L6.2432 11.459 C6.4629 12.1377 6.4678 12.1543 8.9336 11.3565 C11.003 10.6875 11.667 9.9238 11.8565 8.0176 L12.3184 7.8662 L12.4785 10.9033 Z"
             transform="translate(149.515, 377.785)"
             id="path4400" />
          <path
             style="fill:#161413; fill-rule:nonzero;stroke:none;"
             d="M9.9278 11.7432 L4.9883 12.9219 L4.9131 12.5996 C6.4356 12.166 6.3936 11.7647 6.0948 10.5127 L4.0752 2.0557 L3.1612 2.2735 C1.3018 2.7168 0.9219 3.1465 0.9903 5.0801 L0.585 5.1768 L0 2.2764 L9.5401 0 L10.3272 2.8526 L9.9209 2.9492 C9.1211 1.1719 8.5752 0.9815 6.7149 1.4248 L5.8008 1.6426 L7.8643 10.2871 C8.1377 11.4375 8.419 11.71 9.8516 11.4209 L9.9278 11.7432 Z"
             transform="translate(160.289, 374.914)"
             id="path4402" />
          <path
             style="fill:#161413; fill-rule:nonzero;stroke:none;"
             d="M1.9121 11.9004 C3.3613 11.6133 3.5166 11.2871 3.3076 10.0693 L1.9863 2.4619 C1.7666 1.1953 1.4922 1.0293 0.0566 1.208 L0 0.8838 L5.0888 0 L5.1474 0.3271 C3.9033 0.5957 3.497 0.7881 3.7353 2.1601 L5.0537 9.7666 C5.2861 11.1035 5.7265 11.2041 7.001 11.0176 L7.0576 11.3428 L1.9687 12.2265 L1.9121 11.9004 Z"
             transform="translate(170.904, 373.883)"
             id="path4404" />
          <path
             style="fill:#161413; fill-rule:nonzero;stroke:none;"
             d="M3.0644 7.4775 L4.5791 2.5205 L7.0625 7.0771 L3.0644 7.4775 Z M11.957 10.746 C11.1904 10.7714 10.9287 10.6054 10.249 9.3974 L4.956 0 L4.6103 0.0351 L1.8613 8.8906 C1.6093 9.6845 1.1992 11.0019 0.8447 11.4736 C0.5654 11.8359 0.2744 11.8984 0 11.9433 L0.0322 12.2714 L3.4599 11.9296 L3.4257 11.6005 C3.0625 11.6376 2.25 11.7177 2.1767 10.9912 C2.1582 10.8017 2.1855 10.5537 2.25 10.3203 L2.8427 8.2158 L7.375 7.7626 L8.2509 9.3525 C8.3789 9.5849 8.6621 10.1318 8.6894 10.4091 C8.7539 11.0498 8.1845 11.125 7.5439 11.1875 L7.5771 11.5166 L11.9902 11.0761 L11.957 10.746 Z"
             transform="translate(178.097, 372.805)"
             id="path4406" />
        </g>
        <g
           id="Group2"
           clip-path="url(#Clip3)">
          <path
             style="fill:#ffffff; fill-rule:nonzero;stroke:none;"
             d="M157.053 82.7739 C157.053 168.412 88.3057 216.661 78.498 223.116 C68.6904 216.661 0 168.412 0 82.7739 L0.0947 0 L157.053 0 L157.053 82.7739 Z"
             transform="translate(25.4199, 160.096)"
             id="path4409" />
        </g>
        <path
           style="fill:#ffff00;fill-rule:nonzero;stroke:none"
           d="M0.0918 0 L157.046 0 L157.046 77.0229 L0 77.0229 L0.0918 0 Z"
           transform="translate(25.4262, 160.096)"
           id="path4411" />
      </g>
      <path
         style="fill:#ffffff; fill-rule:nonzero;stroke:none;"
         d="M162.627 3.9448 L162.627 0 L0 0 L0 3.9448 L162.627 3.9448 Z"
         transform="translate(25.457, 210.038)"
         id="path4413" />
      <path
         style="fill:none;stroke:#161413;stroke-width:1.97223997;stroke-linecap:butt;stroke-linejoin:miter;stroke-dasharray:none"
         d="M -0.923077,0 157.55008,0"
         transform="translate(25.457,210.038)"
         id="path4415"
         inkscape:connector-curvature="0"
         sodipodi:nodetypes="cc" />
      <path
         style="fill:none;stroke:#161413;stroke-width:0.98646498;stroke-linecap:butt;stroke-linejoin:miter;stroke-dasharray:none"
         d="M -0.923077,0 157.55008,0"
         transform="translate(25.457,213.982)"
         id="path4417"
         inkscape:connector-curvature="0"
         sodipodi:nodetypes="cc" />
      <path
         style="fill:#ffffff; fill-rule:nonzero;stroke:#161413; stroke-width:1.5058; stroke-linecap:butt; stroke-linejoin:miter; stroke-dasharray:none;"
         d="M5.4248 68.7529 L5.4248 0 L0 0 L0 68.7529 L5.4248 68.7529 Z"
         transform="translate(66.789, 169.112)"
         id="path4419" />
      <path
         style="fill:none;stroke:#161413; stroke-width:1.81735; stroke-linecap:butt; stroke-linejoin:miter; stroke-dasharray:none;"
         d="M7.5732 0 L0 7.5761 "
         transform="translate(59.2158, 202.471)"
         id="path4421" />
      <path
         style="fill:none;stroke:#161413; stroke-width:1.81735; stroke-linecap:butt; stroke-linejoin:miter; stroke-dasharray:none;"
         d="M31.8515 0 L0 31.8521 "
         transform="translate(34.9375, 178.151)"
         id="path4423" />
      <path
         style="fill:none;stroke:#161413; stroke-width:1.81735; stroke-linecap:butt; stroke-linejoin:miter; stroke-dasharray:none;"
         d="M23.8067 0 L0 23.8061 "
         transform="translate(43.1445, 186.204)"
         id="path4425" />
      <path
         style="fill:none;stroke:#161413; stroke-width:1.81735; stroke-linecap:butt; stroke-linejoin:miter; stroke-dasharray:none;"
         d="M15.1933 0 L0 15.1938 "
         transform="translate(51.5957, 194.587)"
         id="path4427" />
      <path
         style="fill:none;stroke:#161413; stroke-width:1.81735; stroke-linecap:butt; stroke-linejoin:miter; stroke-dasharray:none;"
         d="M0 0 L7.566 7.5761 "
         transform="translate(72.0517, 202.471)"
         id="path4429" />
      <path
         style="fill:none;stroke:#161413; stroke-width:1.81735; stroke-linecap:butt; stroke-linejoin:miter; stroke-dasharray:none;"
         d="M0 0 L31.8467 31.8521 "
         transform="translate(72.0517, 178.151)"
         id="path4431" />
      <path
         style="fill:none;stroke:#161413; stroke-width:1.81735; stroke-linecap:butt; stroke-linejoin:miter; stroke-dasharray:none;"
         d="M0 0 L23.8067 23.8061 "
         transform="translate(71.8901, 186.204)"
         id="path4433" />
      <path
         style="fill:none;stroke:#161413; stroke-width:1.81735; stroke-linecap:butt; stroke-linejoin:miter; stroke-dasharray:none;"
         d="M0 0 L15.1866 15.1938 "
         transform="translate(72.0517, 194.587)"
         id="path4435" />
      <path
         style="fill:#ffffff; fill-rule:nonzero;stroke:#161413; stroke-width:1.5058; stroke-linecap:butt; stroke-linejoin:miter; stroke-dasharray:none;"
         d="M5.4229 68.7529 L5.4229 0 L0 0 L0 68.7529 L5.4229 68.7529 Z"
         transform="translate(135.752, 169.112)"
         id="path4437" />
      <path
         style="fill:none;stroke:#161413; stroke-width:1.81735; stroke-linecap:butt; stroke-linejoin:miter; stroke-dasharray:none;"
         d="M7.5732 0 L0 7.5761 "
         transform="translate(128.179, 202.471)"
         id="path4439" />
      <path
         style="fill:none;stroke:#161413; stroke-width:1.81735; stroke-linecap:butt; stroke-linejoin:miter; stroke-dasharray:none;"
         d="M31.8535 0 L0 31.8521 "
         transform="translate(103.898, 178.151)"
         id="path4441" />
      <path
         style="fill:none;stroke:#161413; stroke-width:1.81735; stroke-linecap:butt; stroke-linejoin:miter; stroke-dasharray:none;"
         d="M23.8066 0 L0 23.8061 "
         transform="translate(112.107, 186.204)"
         id="path4443" />
      <path
         style="fill:none;stroke:#161413; stroke-width:1.81735; stroke-linecap:butt; stroke-linejoin:miter; stroke-dasharray:none;"
         d="M15.1943 0 L0 15.1938 "
         transform="translate(120.558, 194.587)"
         id="path4445" />
      <path
         style="fill:none;stroke:#161413; stroke-width:1.81735; stroke-linecap:butt; stroke-linejoin:miter; stroke-dasharray:none;"
         d="M0 0 L7.5645 7.5761 "
         transform="translate(141.015, 202.471)"
         id="path4447" />
      <path
         style="fill:none;stroke:#161413; stroke-width:1.81735; stroke-linecap:butt; stroke-linejoin:miter; stroke-dasharray:none;"
         d="M0 0 L31.8448 31.8521 "
         transform="translate(141.015, 178.151)"
         id="path4449" />
      <path
         style="fill:none;stroke:#161413; stroke-width:1.81735; stroke-linecap:butt; stroke-linejoin:miter; stroke-dasharray:none;"
         d="M0 0 L23.8067 23.8061 "
         transform="translate(140.851, 186.204)"
         id="path4451" />
      <path
         style="fill:none;stroke:#161413; stroke-width:1.81735; stroke-linecap:butt; stroke-linejoin:miter; stroke-dasharray:none;"
         d="M0 0 L15.1856 15.1938 "
         transform="translate(141.015, 194.587)"
         id="path4453" />
      <g
         id="Group4"
         clip-path="url(#Clip4)">
        <path
           style="fill:#161413; fill-rule:nonzero;stroke:none;"
           d="M90.711 141.519 C90.711 141.519 108.986 149.418 112.087 141.601 C112.087 141.601 114.403 137.143 106.305 132.867 C106.305 132.867 105.624 132.28 105.744 130.969 C105.744 130.969 105.942 129.735 104.465 129.803 L104.181 128.357 C104.181 128.357 104.107 127.619 103.635 128.09 C103.635 128.09 102.647 129.095 101.74 128.922 L101.542 126.931 C101.542 126.931 101.447 126.479 100.634 126.667 C100.634 126.667 99.1885 127.042 98.8262 127.045 C98.8262 127.045 98.3604 125.69 98.624 124.692 C98.624 124.692 99.1533 123.147 97.2588 123.979 L95.2764 125.084 L94.5303 122.736 C94.5303 122.736 94.4346 122.193 93.8037 122.471 L91.999 123.301 L91.9727 120.131 C91.9727 120.131 92.0205 119.359 91.1543 119.776 C91.1543 119.776 89.1192 120.696 88.7979 119.707 C88.7979 119.707 88.4024 117.204 87.416 117.093 L84.8926 118.474 L84.2383 116.306 L81.8916 117.141 L80.3242 113.985 C80.3242 113.985 80.0459 113.263 79.3262 113.903 L76.4512 116.555 C76.4512 116.555 75.2324 115.763 74.8018 114.215 C74.8018 114.215 74.5791 113.336 73.6221 114.044 L71.1016 115.787 C71.1016 115.787 70.5615 116.063 70.2842 115.522 C70.0069 114.982 70.0069 114.982 70.0069 114.982 L69.4541 113.899 C69.4541 113.899 69.1465 113.335 68.5469 113.726 C68.5469 113.726 66.1182 115.469 65.3975 116.109 C65.3975 116.109 64.8184 116.641 64.2188 115.938 C64.2188 115.938 62.2012 113.01 61.8438 113.514 L60.1426 115.703 C60.1426 115.703 59.3379 116.978 59.3238 115.348 L58.2637 64.5678 C58.2637 64.5678 58.9824 61.3007 63.0518 65.6801 C63.0518 65.6801 61.6143 67.0517 61.4522 69.2265 C61.4522 69.2265 61.2881 71.1303 60.9307 71.6767 C60.9307 71.6767 60.3965 72.7685 61.126 73.3051 C61.126 73.3051 61.4024 73.8471 61.1348 74.3017 C61.1348 74.3017 60.6084 76.2089 61.9707 76.5585 C61.9707 76.5585 63.3311 76.9086 63.794 77.9912 C63.794 77.9912 64.4385 79.3442 65.7071 79.3335 C65.7071 79.3335 67.0664 79.4126 67.6123 79.7695 C67.6123 79.7695 69.6094 80.1147 69.6885 78.8452 C69.6885 78.8452 70.0205 76.6469 71.0987 74.4853 C71.0987 74.4853 74.1211 65.8066 64.4014 64.7622 C64.4014 64.7622 63.667 63.5009 61.4737 61.3471 C59.3711 59.1918 59.3711 59.1918 59.3711 59.1918 C59.3711 59.1918 60.1529 45.2363 60.0493 43.6972 C60.0493 43.6972 59.3218 43.3408 58.9585 43.2539 C59.3018 41.0771 59.3018 41.0771 59.3018 41.0771 C59.3018 41.0771 59.4741 40.0791 58.3848 39.8168 C58.3848 39.8168 57.8433 33.6196 65.0039 34.2807 C65.0039 34.2807 69.0235 34.5429 69.0078 42.8032 C69.0078 42.8032 70.3701 43.3349 70.8008 40.7944 C70.8008 40.7944 71.4199 39.0683 71.9746 40.4218 C71.9746 40.4218 72.6328 43.1333 71.6465 44.229 C71.6465 44.229 70.4795 45.4169 72.1084 45.1308 C72.1084 45.1308 72.3858 45.9428 72.7461 45.6679 C73.1055 45.3935 73.1055 45.3935 73.1055 45.3935 L74.9072 44.2001 C74.9072 44.2001 76.6602 47.7172 72.1944 55.0024 C72.1944 55.0024 71.2979 56.2187 72.5615 55.5429 L76.1641 53.1552 C76.1641 53.1552 77.0684 52.9668 77.3506 54.1416 C77.3506 54.1416 77.5449 55.6796 78.1797 55.7646 C78.1797 55.7646 78.3506 55.7773 78.2627 55.039 C78.2627 55.039 77.9571 51.2377 79.5947 52.039 C79.5947 52.039 79.6406 53.9428 81.2403 53.7446 C81.2403 53.7446 81.6836 52.4731 80.1973 48.4106 C80.1973 48.4106 79.8262 47.4169 80.7305 47.2285 C80.7305 47.2285 82.0879 46.9448 82.1748 46.581 C82.1748 46.581 82.2832 46.3901 81.4453 46.1352 C81.4453 46.1352 78.628 45.0732 79.7959 43.9755 C79.7959 43.9755 81.0078 43.5742 82.0567 43.5029 C82.0567 43.5029 84.3672 43.0087 84.669 41.8496 C84.669 41.8496 84.9365 41.3037 84.0322 41.4931 C84.0322 41.4931 82.8047 41.5639 81.1289 41.0659 C81.1289 41.0659 80.041 40.894 79.1348 40.812 C79.1348 40.812 79.4824 39.1782 80.7481 38.895 C80.7481 38.895 82.917 38.4238 82.8184 37.4277 L78.7412 37.373 C78.7412 37.373 78.5557 36.831 79.9063 35.914 C79.9063 35.914 82.6104 34.5307 81.2461 33.8183 C81.2461 33.8183 79.6231 34.7382 76.4502 34.4043 C76.4502 34.4043 76.1533 31.4179 76.6856 30.2353 C76.6856 30.2353 77.0176 29.4448 76.4112 29.8764 C76.4112 29.8764 75.0606 30.8847 74.0615 30.5307 C74.0615 30.5307 73.959 29.0825 74.8574 28.3501 C74.8574 28.3501 75.1153 27.7314 74.4912 27.81 C74.4912 27.81 72.6905 29.0932 71.8721 28.7382 C71.8721 28.7382 71.418 28.6523 71.9561 28.0136 C71.9561 28.0136 72.7627 27.0102 72.0401 27.1972 C72.0401 27.1972 70.2324 27.7568 69.3379 28.9418 C69.3379 28.9418 68.8897 29.4892 68.5235 28.9492 C68.5235 28.9492 68.1543 28.2275 67.8897 28.955 C67.8897 28.955 67.4658 32.31 60.667 31.5546 C60.667 31.5546 66.502 25.706 74.9326 26.538 C74.9326 26.538 78.1983 27.2343 79.8721 32.0195 C79.8721 32.0195 81.0362 30.56 80.8477 29.7465 C80.8477 29.7465 80.4668 27.6665 81.5615 28.6533 C81.5615 28.6533 83.1113 29.5449 85.0352 32.1543 C85.0352 32.1543 85.7608 32.2387 85.4815 31.4257 C85.4815 31.4257 84.8223 28.4433 83.9033 27.0019 C83.9033 27.0019 83.8047 26.0976 85.5196 25.4482 C85.5196 25.4482 86.6055 25.2568 85.6944 24.7216 C85.6944 24.7216 83.4346 25.1044 83.3369 24.3803 C83.3369 24.3803 83.2393 23.5659 84.0488 22.9248 C84.0488 22.9248 85.3086 22.0986 85.0283 21.1044 C85.0283 21.1044 84.3086 21.5644 82.9502 21.6669 C81.5928 21.7695 81.5928 21.7695 81.5928 21.7695 L80.0528 21.7827 C80.0528 21.7827 81.0381 20.4155 80.8477 19.5117 L77.417 20.8095 C77.417 20.8095 76.2451 21.3642 76.5928 19.8208 L77.0176 16.5566 C77.0176 16.5566 74.3291 19.75 72.878 19.4912 C72.878 19.4912 72.2383 18.9541 73.5762 16.5869 C73.5762 16.5869 73.3272 16.3178 72.9434 16.6831 C72.9434 16.6831 70.3389 19.1513 69.4297 18.8876 C69.4297 18.8876 69.4219 17.9819 70.041 16.3466 C70.041 16.3466 70.7237 15.121 70.0469 15.4824 C69.9131 15.5537 69.7627 15.6235 69.7627 15.6235 C69.7627 15.6235 66.5567 17.0107 64.2031 21.8325 C64.2031 21.8325 62.4287 25.9238 59.3726 28.5771 C59.3726 28.5771 59.0698 25.0478 62.3838 20.852 L66.7764 15.8315 C66.7764 15.8315 70.9287 12.0312 74.6592 16.124 C74.6592 16.124 74.5821 13.3271 76.0869 13.6665 C76.0869 13.6665 78.7217 14.6391 79.8975 14.4472 C79.8975 14.4472 79.1817 11.2944 77.7832 10.9335 L76.6026 10.582 C76.6026 10.582 75.5117 10.0483 76.3213 9.498 C76.3213 9.498 78.3867 7.4863 77.3008 7.6777 C77.3008 7.6777 75.7715 8.687 75.1338 8.4209 C75.1338 8.4209 74.2256 8.0668 73.5059 8.708 C73.5059 8.708 72.6055 9.2587 72.1504 8.9912 C72.1504 8.9912 71.9219 7.5151 72.4903 6.5424 C72.4903 6.5424 72.8321 5.7001 72.0342 6.0029 C72.0342 6.0029 70.5889 6.5595 69.1514 7.8398 C69.1514 7.8398 68.1641 8.7548 68.2451 7.7573 C68.2451 7.7573 68.5869 5.4902 68.0498 6.1284 L65.4522 9.413 C65.4522 9.413 64.6446 10.5068 64.5459 9.3305 L64.711 7.5166 C64.711 7.5166 61.4697 9.7202 60.416 13.4423 C60.416 13.4423 60.3516 16.3413 59.7173 16.3466 C59.7173 16.3466 59.1695 15.8994 59.5943 12.6342 C59.5943 12.6342 61.5059 3.3789 57.7647 0.332 C57.7647 0.332 56.7022 0 56.5078 1.6118 C56.5078 1.6118 55.7832 6.6904 55.7129 9.0459 C55.7129 9.0459 55.2417 12.1298 56.0205 18.2817 C56.0205 18.2817 56.8145 26.0644 55.7593 29.6962 C55.7593 29.6962 53.6631 28.1748 53.7984 23.0112 C53.7984 23.0112 54.2715 15.0366 52.7085 12.4238 C52.7085 12.4238 52.1602 11.8842 52.1704 13.0625 C52.1704 13.0625 52.2827 15.5063 51.6489 15.5122 C51.6489 15.5122 51.0982 14.7021 51.1768 13.3427 C51.2554 11.9829 51.2554 11.9829 51.2554 11.9829 C51.2554 11.9829 51.4956 10.1596 50.7071 11.3544 C50.7071 11.3544 49.8096 12.3588 49.7056 10.8193 L49.5928 8.2841 C49.5928 8.2841 49.4043 7.4711 48.9585 8.2895 C48.9585 8.2895 48.0762 10.9248 47.4356 10.2055 C47.4356 10.2055 46.4131 7.2255 44.4038 5.3413 C44.4038 5.3413 43.8609 5.4365 44.0484 6.1601 C44.0484 6.1601 45.166 9.5918 43.6196 8.8803 C43.6196 8.8803 40.8916 7.6372 40.062 6.0136 C40.062 6.0136 39.2403 5.2055 39.3389 6.2011 C39.3389 6.2011 40.2656 7.8501 39.5357 7.9209 C39.5357 7.9209 38.2764 8.1518 37.5357 7.123 C37.5357 7.123 36.5322 6.3168 36.7227 7.4023 C36.7227 7.4023 37.5615 10.021 37.0181 10.0258 C37.0181 10.0258 35.8418 10.1269 34.9321 9.6826 C34.9321 9.6826 32.8696 8.8457 33.0293 9.6084 C33.1236 10.06 33.397 10.2387 33.9468 10.9589 C33.9468 10.9589 34.9522 11.9462 33.958 12.227 C33.958 12.227 31.52 13.0639 29.3892 17.9731 C29.3892 17.9731 29.0899 19.0703 30.4771 18.0542 C30.4771 18.0542 38.2876 10.1958 46.1563 19.184 L45.1699 20.2793 L41.333 16.5996 C41.333 16.5996 40.5244 17.4218 41.7183 19.2226 C41.7183 19.2226 42.6719 20.4751 41.9214 21.6665 C41.9214 21.6665 35.8281 15.2832 35.6216 15.9252 C35.6216 15.9252 34.9024 16.5664 36.4614 18.8168 C36.4614 18.8168 36.8526 20.5346 36.1143 20.54 C36.1143 20.54 33.3482 20.3247 31.1392 20.0561 C31.1392 20.0561 30.1924 19.9804 29.6328 19.7524 C29.6328 19.7524 29.1646 20.5483 30.5161 21.1699 C30.5161 21.1699 34.5728 23.2714 31.8838 23.6123 C31.8838 23.6123 29.7486 23.9487 27.1997 22.2285 C27.1997 22.2285 26.5821 23.9755 29.1343 26.0908 C29.1343 26.0908 29.8516 26.5605 29.2227 27.1201 C29.2227 27.1201 27.4136 28.4814 26.9605 30.9399 C26.9605 30.9399 26.7393 32.8418 26.1939 33.7973 C26.1939 33.7973 27.3838 34.103 28.6377 32.5883 L29.6587 31.6284 C29.6587 31.6284 30.2896 31.3857 30.4561 32.3339 C30.4561 32.3339 30.4878 35.8969 31.2793 35.8901 C31.2793 35.8901 31.6157 35.9707 31.9048 34.9345 C31.9048 34.9345 34.1875 25.7456 41.0952 26.6982 C41.0952 26.6982 46.166 27.1284 50.876 31.5205 C50.876 31.5205 50.6426 31.9179 49.0591 31.9321 C49.0591 31.9321 46.9771 29.2587 41.6607 27.9594 C41.6607 27.9594 40.3906 27.6543 41.27 28.5175 C41.27 28.5175 43.4219 30.1611 42.6343 30.643 C42.6343 30.643 38.9849 29.8046 36.6924 30.2207 C36.6924 30.2207 36.4585 30.6181 37.0943 30.9296 C37.0943 30.9296 39.4795 32.0166 38.2163 32.4243 C38.2163 32.4243 34.8887 32.2163 32.9238 33.8168 C32.9238 33.8168 33.564 34.6025 35.0708 34.9057 C35.0708 34.9057 31.9175 36.4379 30.7451 38.1118 C30.7451 38.1118 30.5113 38.5883 31.3032 38.581 C31.3032 38.581 35.2583 38.2294 34.3159 39.0297 C34.3159 39.0297 30.8477 40.8027 29.0698 45.727 C29.0698 45.727 28.9986 46.5195 29.7857 46.0371 C29.7857 46.0371 32.3042 44.3525 32.3135 45.3813 C32.3135 45.3813 32.0537 51.7968 32.771 52.3447 C32.771 52.3447 33.2544 53.3701 35.0445 49.791 C35.0445 49.791 36.0405 47.2436 37.4131 49.0576 L39.2534 51.2587 C39.2534 51.2587 40.0562 52.5175 40.2822 51.249 C40.2822 51.249 40.8184 49.1855 40.6402 46.8911 C40.6402 46.8911 40.8184 46.2207 41.1929 46.728 C41.1929 46.728 41.2461 48.5463 42.1519 47.749 L42.1436 46.7993 C42.1436 46.7993 44.2759 46.1474 44.2886 47.6508 C44.3018 49.1552 44.3018 49.1552 44.3018 49.1552 C44.3018 49.1552 43.9068 50.6113 44.5611 51.6074 C44.5723 52.8735 44.5723 52.8735 44.5723 52.8735 C44.5723 52.8735 44.5025 53.9043 45.0498 53.1079 C45.5967 52.3115 45.5967 52.3115 45.5967 52.3115 L46.378 51.1167 C46.378 51.1167 46.8467 50.3994 47.2471 50.9501 C47.2471 50.9501 49.0957 54.0214 52.1851 54.2314 C52.459 49.3999 52.459 49.3999 52.459 49.3999 C52.459 49.3999 53.4883 49.311 52.835 47.1005 C52.835 47.1005 52.5098 46.1528 53.0615 45.832 C53.0615 45.832 53.4175 45.5 53.0542 45.0405 C53.0542 45.0405 52.5674 43.6982 53.5132 43.2153 C53.5132 43.2153 53.7451 42.7802 53.3447 42.1084 C53.3447 42.1084 52.5127 37.5224 53.9312 36.7192 C53.9312 36.7192 54.7197 36.3955 54.7261 37.1079 C54.7324 37.8203 54.7324 37.8203 54.7324 37.8203 C54.7324 37.8203 53.7608 59.7846 54.1421 72.1899 L54.7158 116.656 C54.7158 116.656 54.1035 119.018 51.9077 116.591 C51.9077 116.591 50.898 115.059 50.002 116.154 C50.002 116.154 49.5586 117.246 49.1011 116.706 L47.5488 115.361 L46.9219 116.091 C46.9219 116.091 46.5747 116.689 45.9219 115.647 C45.9219 115.647 45.4468 114.906 44.833 115.476 L43.395 116.756 C43.395 116.756 40.9243 113.88 39.835 113.618 L37.4209 117.172 C37.4209 117.172 36.7984 118.445 36.2471 117.544 C36.2471 117.544 35.5674 116.536 35.0679 117.373 C34.8765 117.694 34.8003 117.829 34.8003 117.829 C34.8003 117.829 34.6001 118.302 34.0781 118.106 C34.0781 118.106 33.3111 117.271 32.8589 118.24 C32.5122 118.981 32.4561 119.118 32.4561 119.118 L31.6592 121.117 C31.6592 121.117 31.125 122.209 30.3926 121.309 C30.3926 121.309 29.0215 119.873 28.854 121.413 L28.6831 122.593 C28.6831 122.593 28.5108 123.591 27.6909 123.055 C27.6909 123.055 26.8233 122.235 26.4219 122.975 L25.5308 124.613 C25.5308 124.613 24.9029 125.343 24.4458 124.894 C23.9893 124.445 23.9893 124.445 23.9893 124.445 C23.9893 124.445 23.2222 123.445 22.9033 124.455 C22.6719 125.186 22.5503 125.545 22.5503 125.545 C22.5503 125.545 22.356 126.657 21.3775 126.099 L20.1944 125.476 L19.6641 126.929 C19.6641 126.929 19.4234 127.849 18.5791 127.12 C18.5791 127.12 17.6651 126.222 17.3125 127.312 C16.96 128.402 16.96 128.402 16.96 128.402 C16.96 128.402 16.6094 129.764 15.9702 129.136 C15.9702 129.136 14.8247 127.652 14.4312 129.24 L14.0801 130.512 L12.2676 130.346 C12.2676 130.346 10.8169 130.178 11.8247 131.527 C12.8325 132.877 12.8325 132.877 12.8325 132.877 C12.8325 132.877 13.1577 133.78 12.211 134.241 C12.211 134.241 0 139.976 8.961 145.682 C8.961 145.682 10.3203 147.051 17.6577 145.877 C23.5391 144.936 23.5362 144.919 23.5362 144.919 C23.5362 144.919 31.1328 143.584 32.4873 143.119 L33.6553 142.022 C33.6553 142.022 36.7403 142.641 39.8946 142.137 C39.8946 142.137 45.3218 141.342 48.2324 141.441 C48.2324 141.441 50.3032 140.063 54.3809 140.209 C54.3809 140.209 58.4605 140.626 60.5371 139.883 C60.5371 139.883 65.5332 141.65 69.6826 139.712 C69.6826 139.712 81.5723 142.504 90.711 141.519 Z"
           transform="translate(44.9316, -0.3037)"
           id="path4456" />
        <path
           style="fill:none;stroke:#161413; stroke-width:0.054342; stroke-linecap:butt; stroke-linejoin:miter; stroke-dasharray:none;"
           d="M0.3584 0.6445 L0.9873 0.1865 C0.9873 0.1865 1.6202 0 1.7168 0.7232 C1.7168 0.7232 1.7237 1.4483 0.9971 1.2734 C0.9971 1.2734 0 1.1001 0.3584 0.6445 Z"
           transform="translate(146.689, 129.419)"
           id="path4458" />
        <path
           style="fill:#3771c8;fill-rule:nonzero;stroke:none"
           d="M45.2207 4.4395 C45.2207 4.4395 55.6094 0 63.1377 6.4893 C63.1377 6.4893 67.629 11.2388 61.8819 14.21 C61.8819 14.21 59.8536 15.3828 54.8174 14.2046 C54.8174 14.2046 53.5249 13.9785 51.3545 14.3716 C51.3545 14.3716 49.0513 15.0703 46.5962 14.0059 C46.5962 14.0059 49.1314 8.8208 44.9576 5.3931 C44.9576 5.3931 44.3409 4.7866 45.2207 4.4395 Z M81.5772 6.0879 C86.0948 9.9204 84.4981 13.8072 84.4981 13.8072 C83.9668 15.1021 84.9219 15.5694 84.9219 15.5694 C88.8106 17.3687 92.6895 18.2173 92.6895 18.2173 C104.668 20.7613 104.626 16.0074 104.626 16.0074 C105.619 9.2388 92.793 6.8726 92.793 6.8726 C90.1407 6.5904 87.7588 5.9654 87.7588 5.9654 C85.0332 5.107 81.7764 5.543 81.7764 5.543 C81.1993 5.6162 81.5772 6.0879 81.5772 6.0879 Z M15.0938 8.3057 C2.9146 9.9082 1.1656 15.6973 1.1656 15.6973 C0 22.229 11.2574 20.024 11.2574 20.024 C13.1563 19.667 17.4288 18.815 17.4288 18.815 C18.7862 18.7354 19.9385 18.4527 19.9385 18.4527 C20.5479 18.2442 23.9405 17.7383 23.9405 17.7383 C29.5025 16.8741 27.4253 12.3413 27.4253 12.3413 C24.6587 6.7954 15.0938 8.3057 15.0938 8.3057 Z"
           transform="translate(51.0722, 124.351)"
           id="path4460" />
        <path
           style="fill:#ffffff; fill-rule:nonzero;stroke:none;"
           d="M0.2695 7.9394 C0.2695 7.9394 5.7959 2.9316 16.6088 4.331 C16.6088 4.331 21.437 4.8315 21.8203 9.8554 C21.8203 9.8554 22.4804 15.3857 12.6313 15.4389 C12.6313 15.4389 8.7587 15.3369 6.5229 16.0361 C6.5229 16.0361 5.9804 16.1762 5.2314 15.979 C5.2314 15.979 4.4121 15.4433 3.666 15.5859 C3.666 15.5859 4.8486 11.0913 0.0688 8.2812 C0.0688 8.2812 0 8.1455 0.2695 7.9394 Z M38.2128 4.7514 C41.8388 7.708 39.8408 12.0732 39.8408 12.0732 C39.372 12.893 40.0527 13.0224 40.0527 13.0224 C48.1298 16.144 56.5449 15.0166 56.5449 15.0166 C61.2197 13.7871 58.6308 9.0542 58.6308 9.0542 C53.1845 0 38.8203 4.2026 38.8203 4.2026 C38.0068 4.3794 38.2128 4.7514 38.2128 4.7514 Z"
           transform="translate(75.9512, 124.833)"
           id="path4462" />
        <path
           style="fill:#008f33; fill-rule:nonzero;stroke:none;"
           d="M35.2867 125.925 C23.6836 124.851 16.8433 129.711 16.8433 129.711 L13.6724 129.649 C13.5777 129.196 13.7481 127.926 13.7481 127.926 C13.8423 127.143 14.92 127.576 14.92 127.576 L16.1446 127.672 C16.6749 126.218 17.2613 125.812 17.2613 125.812 L18.8042 126.162 C19.9971 126.457 19.9888 125.54 19.9888 125.54 C19.9888 125.54 19.9854 125.129 20.15 124.7 C20.4268 123.978 20.9615 124.24 20.9615 124.24 L22.1451 124.954 C23.2403 125.941 24.2071 122.581 24.2071 122.581 C24.2071 122.581 24.1944 122.574 24.563 121.853 C24.8482 121.295 25.2852 121.575 25.2852 121.575 L26.9263 122.829 C27.836 123.274 28.0049 121.914 28.0049 121.914 L28.0884 121.098 C28.0801 120.101 28.8111 120.819 28.8111 120.819 L29.9053 121.715 C30.8174 122.432 31.6128 120.161 31.6128 120.161 C32.064 119.115 32.7881 119.879 32.7881 119.879 L34.0669 121.135 C34.9795 121.853 35.8731 120.576 35.8731 120.576 C36.9942 119.356 37.8672 120.739 37.8672 120.739 C37.8672 120.739 37.8672 120.739 38.6001 121.639 C39.3321 122.538 39.961 121.899 39.961 121.899 L40.7676 120.986 C41.5733 119.892 42.584 121.513 42.584 121.513 C43.5005 122.679 44.0328 121.41 44.0328 121.41 C45.1905 119.226 46.5669 121.207 46.5669 121.207 C47.4151 122.297 48.0196 121.555 48.0196 121.555 L50.0801 119.092 C50.4786 118.763 50.8047 119.267 50.8047 119.267 L52.1827 121.247 L53.0772 120.152 C53.4356 119.606 53.9834 120.144 53.9834 120.144 L54.6241 120.863 C55.3555 121.581 55.9854 121.213 55.9854 121.213 L57.334 120.115 L57.7627 120.815 C58.3409 121.821 59.5118 120.639 59.5118 120.639 C59.961 120.091 60.1456 120.543 60.1456 120.543 L61.5157 121.89 L62.3262 121.248 C62.9551 120.79 63.2305 121.149 63.2305 121.149 L64.0586 122.591 L65.3194 121.674 L65.8702 122.575 C66.3311 123.477 67.5 122.651 67.5 122.651 C68.7647 122.278 68.7715 122.912 68.7715 122.912 L68.8692 123.816 L70.4981 123.53 C70.9913 123.353 71.044 123.797 71.044 123.797 L71.3223 124.52 C71.6016 125.513 72.4131 125.053 72.4131 125.053 L73.045 124.776 L73.9629 126.126 L75.3174 125.662 C76.6797 126.103 75.419 126.929 75.419 126.929 C73.0684 127.403 69.8868 126.072 69.8868 126.072 C64.3428 123.856 55.3975 126.381 55.3975 126.381 C54.4034 126.662 53.7647 126.215 53.7647 126.215 C44.8628 123.123 37.3677 125.635 37.3677 125.635 C36.5562 126.095 35.2867 125.925 35.2867 125.925 Z M86.9356 128.457 L86.6465 126.467 C86.6465 126.467 86.0088 126.111 85.2891 126.661 C85.2891 126.661 84.3838 126.669 84.0186 126.31 L83.9073 124.137 C83.9073 124.137 83.542 123.687 82.8213 124.056 C82.0997 124.424 82.0997 124.424 82.0997 124.424 L81.1983 124.885 C81.1983 124.885 80.459 125.28 80.2852 124.169 L80.1846 122.992 C80.1846 122.992 79.8545 121.663 78.6407 122.553 C78.6407 122.553 76.8438 124.29 77.001 121.571 L77.0811 120.303 C77.0811 120.303 77.1788 119.316 76.0801 119.768 L74.9981 120.23 C74.9981 120.23 73.8262 120.875 73.7217 119.336 C73.6182 117.797 73.6182 117.797 73.6182 117.797 C73.6182 117.797 73.4258 116.712 72.6163 117.262 C71.8057 117.813 71.8057 117.813 71.8057 117.813 L70.8155 118.455 C70.8155 118.455 70.0889 118.281 69.9893 117.195 C69.9893 117.195 70.0674 115.836 68.9874 116.479 L67.9063 117.213 C67.9063 117.213 66.8116 116.408 66.712 115.412 C66.712 115.412 66.6084 113.874 65.8819 113.699 L63.0967 116.169 C63.0967 116.169 62.2862 116.81 61.7344 115.819 L60.7217 113.926 C60.7217 113.926 60.0821 113.388 59.0938 114.212 L57.835 115.219 C57.835 115.219 57.0284 116.223 56.2051 115.233 L55.1963 113.974 C55.1963 113.974 54.7374 113.253 53.9288 113.985 C53.1192 114.717 53.1192 114.717 53.1192 114.717 L51.9512 115.724 C51.9512 115.724 51.0567 116.909 50.0499 115.65 C49.043 114.391 49.043 114.391 49.043 114.391 C49.043 114.391 48.3096 113.402 47.8633 114.13 C47.417 114.858 47.417 114.858 47.417 114.858 L45.4483 117.684 C45.4483 117.684 45.1587 118.453 45.9136 119.038 C46.6294 119.593 46.6431 119.575 46.6431 119.575 C46.6431 119.575 47.5557 120.382 48.0928 119.652 L50.0655 117.372 C50.0655 117.372 50.6055 116.558 51.129 117.209 C51.4795 117.649 51.6729 117.962 51.6729 117.962 C51.6729 117.962 52.5059 119.44 52.9737 118.613 L53.5069 117.431 C53.5069 117.431 53.7735 116.67 54.4483 117.527 C54.9922 118.218 55.1456 118.413 55.1456 118.413 C55.1456 118.413 55.793 119.569 56.6006 119.034 L57.5889 118.12 C57.5889 118.12 58.3975 117.478 58.587 118.382 C58.587 118.382 58.6905 119.831 59.6807 119.097 L60.3995 118.457 C60.3995 118.457 60.7071 117.946 61.0362 118.723 C61.4151 119.622 61.4063 119.625 61.4063 119.625 C61.4063 119.625 61.5928 120.349 62.3125 119.798 C63.0333 119.249 63.0333 119.249 63.0333 119.249 C63.0333 119.249 63.8418 118.517 64.1202 119.33 C64.1202 119.33 64.1348 120.96 64.9463 120.41 C64.9463 120.41 65.9317 119.313 66.2129 120.308 L66.2208 121.124 C66.2208 121.124 66.5909 122.207 67.7608 121.29 C67.7608 121.29 69.6514 120.006 69.8438 121.363 C69.8438 121.363 69.8565 122.721 70.7569 122.08 C70.7569 122.08 71.7461 121.255 71.9336 121.978 L72.3047 122.881 C72.3047 122.881 72.4932 123.875 73.2139 123.416 C73.2139 123.416 74.0235 122.775 74.1202 123.409 C74.1202 123.409 73.9542 125.13 75.2159 124.485 L75.9366 124.026 C75.9366 124.026 76.7471 123.476 76.9366 124.47 C76.9366 124.47 77.0391 125.828 77.67 125.459 C77.67 125.459 79.0284 124.734 78.8526 125.902 C78.8526 125.902 78.6524 127.28 81.3116 127.511 C81.3116 127.511 84.4854 128.026 85.211 128.11 C85.211 128.11 86.3907 128.366 86.9356 128.457 Z M1.1871 131.207 C1.1871 131.207 6.6993 129.8 9.0499 129.327 L10.211 127.415 L11.938 128.124 C11.938 128.124 12.3008 128.211 12.566 127.484 C12.8316 126.757 12.8316 126.757 12.8316 126.757 L13.1861 125.848 C13.1861 125.848 13.629 124.757 14.3604 125.566 C15.0928 126.375 15.0928 126.375 15.0928 126.375 C15.0928 126.375 15.3658 126.553 15.6319 125.918 L16.2515 124.282 C16.2515 124.282 16.606 123.373 17.5171 123.999 C18.4283 124.625 18.4283 124.625 18.4283 124.625 C18.4283 124.625 18.7774 124.928 18.9688 124.348 C19.2125 123.614 19.2344 123.621 19.2344 123.621 L19.7652 122.168 C19.7652 122.168 20.0298 121.35 20.67 122.069 C21.3106 122.788 21.3106 122.788 21.3106 122.788 L22.0625 123.619 L23.8233 120.139 C23.8233 120.139 24.2652 118.957 24.9971 119.766 C25.7295 120.575 25.7295 120.575 25.7295 120.575 C25.7295 120.575 27.1011 122.102 27.087 120.472 C27.087 120.472 27.1592 118.388 28.0665 118.562 L29.6163 119.726 C29.6163 119.726 30.4366 120.353 30.9722 119.441 C31.5079 118.531 31.5079 118.531 31.5079 118.531 L31.9537 117.712 L34.0518 119.415 C34.0518 119.415 34.7847 120.313 35.6836 119.582 C36.5831 118.849 36.5831 118.849 36.5831 118.849 L37.212 118.3 L38.9512 120.367 C38.9512 120.367 39.4522 120.968 40.0362 120.177 C40.7251 119.244 40.753 119.265 40.753 119.265 C40.753 119.265 41.2901 118.535 41.9278 118.982 C42.566 119.43 42.566 119.43 42.566 119.43 C42.566 119.43 43.481 120.508 43.9268 119.689 L44.3721 118.871 C44.3721 118.871 44.6788 118.49 43.9097 117.788 C43.3877 117.311 43.3624 117.339 43.3624 117.339 C43.3624 117.339 41.7237 115.73 41.1075 116.345 L40.5528 117.092 C40.5528 117.092 40.377 117.728 39.1919 116.832 C38.0059 115.938 38.0059 115.938 38.0059 115.938 C38.0059 115.938 37.2872 115.131 37.0093 115.856 C37.0093 115.856 36.3912 117.673 35.6583 116.684 C34.9249 115.693 34.9249 115.693 34.9249 115.693 C34.9249 115.693 34.0997 114.613 33.5684 115.977 C33.5684 115.977 33.3951 116.884 32.7559 116.255 C32.7559 116.255 32.1114 115.084 31.4834 115.724 C31.4834 115.724 30.3218 117.545 29.1324 116.197 C27.9424 114.849 27.9424 114.849 27.9424 114.849 C27.9424 114.849 26.8042 113.238 26.2154 114.14 L23.8008 117.603 L23.2535 117.155 C23.2535 117.155 22.6719 116.54 22.4385 117.162 C22.1958 117.808 22.1724 117.798 22.1724 117.798 C22.1724 117.798 21.8907 118.691 21.2725 118.44 L20.6348 118.083 C20.6348 118.083 19.9976 117.636 19.646 118.908 L19.3863 120.269 C19.3863 120.269 19.126 121.629 18.2173 121.275 C17.3091 120.921 17.3091 120.921 17.3091 120.921 C17.3091 120.921 16.3687 120.404 16.1363 121.475 L15.7852 122.746 C15.7852 122.746 15.7549 123.451 15.0635 123.115 C14.2623 122.725 14.2457 122.76 14.2457 122.76 C14.2457 122.76 13.4273 122.404 12.9825 123.314 C12.5376 124.224 12.5376 124.224 12.5376 124.224 C12.5376 124.224 12.273 125.041 11.7266 124.684 C11.1797 124.326 11.1797 124.326 11.1797 124.326 C11.1797 124.326 10.4117 123.689 10.2242 124.172 C10.0215 124.692 9.9166 124.881 9.9166 124.881 L9.564 125.971 C9.564 125.971 9.5079 126.45 8.7505 126.159 C7.8394 125.809 7.8418 125.805 7.8418 125.805 C7.8418 125.805 6.938 125.321 6.8477 126.086 C6.8477 126.086 6.6817 127.808 6.2256 127.449 C5.7696 127.091 5.7696 127.091 5.7696 127.091 C5.7696 127.091 4.9468 126.193 4.5923 127.101 L4.1504 128.373 C4.1504 128.373 3.7115 129.918 2.6187 129.203 L1.709 128.757 C1.709 128.757 1.6226 129.211 1.8082 129.753 C1.8082 129.753 1.9947 130.386 1.0884 130.303 C1.0884 130.303 0 130.131 0.4581 130.761 L1.1871 131.207 Z M54.0508 12.3379 C54.0508 12.3379 57.5723 11.1514 59.8252 12.354 C59.8252 12.354 60.6446 12.8906 60.502 12.145 C60.3594 11.3985 60.3594 11.3985 60.3594 11.3985 L60.2168 10.6524 C60.2168 10.6524 61.3018 10.3032 62.1221 10.9072 C62.1221 10.9072 63.0792 11.7149 64.502 11.294 C64.502 11.294 64.5518 9.2564 60.21 9.7695 L59.9375 9.7725 L61.0108 8.336 C61.0108 8.336 61.6163 7.584 60.5323 7.8653 C60.5323 7.8653 57.8877 8.4995 56.0752 10.8247 C56.0752 10.8247 55.2637 11.3076 55.5958 10.4903 L57.4659 6.8052 C57.4659 6.8052 57.7276 5.7158 57.0528 6.2652 C57.0528 6.2652 55.2237 6.7569 53.6426 12.4092 L54.0508 12.3379 Z M51.6172 13.7852 C54.3165 11.6558 53.5293 7.1802 53.5293 7.1802 C50.2178 9.0435 51.6172 13.7852 51.6172 13.7852 Z M49.3995 16.3867 C49.3995 16.3867 50.542 15.086 50.5918 13.1153 C50.6426 11.1445 50.6426 11.1445 50.6426 11.1445 C50.6426 11.1445 50.8096 6.9995 50.002 7.8223 C50.002 7.8223 48.4151 9.1709 48.6719 10.8906 C48.6719 10.8906 49.2452 14.3501 49.3995 16.3867 Z M46.9844 19.8047 L47.9249 18.5737 C47.9249 18.5737 47.9014 15.9243 48.2344 15.1738 C48.2344 15.1738 48.5489 12.3184 48 11.7119 C48 11.7119 47.6583 11.4434 47.3965 12.6006 C47.3965 12.6006 47.1426 14.6402 46.875 15.1177 C46.875 15.1177 46.4737 15.8008 46.5508 16.8877 C46.629 17.9737 46.629 17.9737 46.629 17.9737 C46.629 17.9737 46.7168 20.2822 46.9844 19.8047 Z M43.5943 20.5137 L43.7759 25.6748 C44.6612 25.939 44.6875 21.2515 44.6875 21.2515 C44.8052 20.0054 44.5347 19.3506 44.5347 19.3506 C43.9825 18.3364 43.4166 15.7603 43.4166 15.7603 C42.8301 18.6187 43.5943 20.5137 43.5943 20.5137 Z M42.9732 11.7564 L44.1597 15.3457 C44.1597 15.3457 44.1597 15.3457 44.5103 16.5659 C44.8609 17.7847 44.9883 16.833 44.9883 16.833 L45.1031 14.4551 C45.1031 14.4551 45.1031 14.4551 45.1592 13.0957 C45.2154 11.7363 44.0391 9.3692 44.0391 9.3692 C44.0391 9.3692 44.0391 9.3692 43.6924 8.5571 C43.3458 7.7451 42.9424 8.292 42.9424 8.292 L42.9732 11.7564 Z M43.3042 3.0581 C43.2886 5.9815 44.709 8.2764 44.709 8.2764 C44.709 8.2764 44.709 8.2764 45.1255 9.3599 C45.543 10.4424 45.5811 7.0454 45.5811 7.0454 C45.5811 7.0454 45.5811 7.0454 45.6294 4.8721 C45.6788 2.6978 44.4424 1.2144 44.4424 1.2144 C43.481 0 43.3042 3.0581 43.3042 3.0581 Z M42.2823 36.9395 C42.2823 36.9395 42.1968 37.4346 42.1861 37.9844 C42.1666 39.0029 42.7989 38.1826 42.7989 38.1826 C44.0396 32.4658 49.5313 31.2627 49.5313 31.2627 C45.4434 29.8721 42.3062 36.2168 42.3062 36.2168 L42.2823 36.9395 Z M52.3194 31.7813 C55.1856 33.1821 56.4512 38.1299 56.4512 38.1299 C57.5245 36.5586 56.7588 34.459 56.7588 34.459 C56.6153 33.5772 57.7061 34.043 57.7061 34.043 C59.0098 35.5943 59.7208 39.1206 59.7208 39.1206 C61.1954 36.7979 60.0274 35.313 60.0274 35.313 C57.9639 32.4785 52.3165 31.4414 52.3165 31.4414 C51.9776 31.4444 52.3194 31.7813 52.3194 31.7813 Z M44.8165 58.9522 L44.6939 60.3794 C44.6939 60.3794 46.1851 60.0264 47.0079 60.9697 C47.0079 60.9697 48.0313 61.437 47.004 60.4268 C47.004 60.4268 45.8379 59.2149 44.8165 58.9522 Z M41.9522 57.6182 C42.7735 58.2905 43.5845 57.8755 43.5845 57.8755 C44.9292 56.9048 44.9112 54.2642 44.9112 54.2642 L44.8521 47.607 L41.9522 57.6182 Z M42.606 47.0835 C42.0733 48.3106 41.691 51.0996 41.691 51.0996 L41.7876 54.4273 C41.8516 53.9507 43.3057 49.3867 43.3057 49.3867 C43.3057 49.3867 43.3057 49.3867 43.836 47.8877 C44.3663 46.3882 43.938 44.0825 43.938 44.0825 C43.6783 45.4434 42.606 47.0835 42.606 47.0835 Z M41.834 44.2373 C41.834 44.2373 41.834 44.2373 41.8443 45.46 C41.8555 46.6821 42.0562 46.3408 42.0562 46.3408 C42.7344 46.2671 43.5103 41.7764 43.5103 41.7764 L43.483 38.7197 C41.5181 39.2808 41.834 44.2373 41.834 44.2373 Z M61.1631 40.9409 C63.4473 38 61.3995 36.7954 61.3995 36.7954 C60.5167 36.9395 61.1631 40.9409 61.1631 40.9409 Z M62.7295 41.2671 C63.3497 42.2808 63.2305 44.2515 63.2305 44.2515 C63.6749 40.6475 62.9219 39.9741 62.9219 39.9741 C62.5811 39.9776 62.7295 41.2671 62.7295 41.2671 Z M60.6417 51.0679 C62.8819 50.9126 62.9639 44.7974 62.9639 44.7974 C62.3165 48.3355 60.6417 51.0679 60.6417 51.0679 Z M64.1817 44.2432 C64.1817 44.2432 64.0684 46.8257 63.5323 47.5777 C63.5323 47.5777 62.9952 48.3975 63.5586 50.6343 C63.5586 50.6343 64.0381 51.0381 64.0303 50.1553 C64.0225 49.272 64.0225 49.272 64.0225 49.272 L64.0127 48.1846 C64.0127 48.1846 64.0733 47.3013 64.6885 47.7715 C65.3038 48.2412 65.3038 48.2412 65.3038 48.2412 C65.3038 48.2412 66.4678 49.1817 66.3223 48.1646 C66.3223 48.1646 66.1749 46.9434 64.5391 46.1426 C64.5391 46.1426 63.92 45.4004 64.667 45.3257 C65.4141 45.2515 65.4141 45.2515 65.4141 45.2515 C65.4141 45.2515 66.7042 45.2403 65.7471 44.5015 C65.7471 44.5015 65.2657 43.8945 64.1817 44.2432 Z M63.9542 41.46 L64.0323 42.6826 C64.0323 42.6826 64.4415 42.9502 65.1153 42.3335 C65.1153 42.3335 66.5997 41.0293 66.9385 41.0264 C66.9385 41.0264 67.9825 40.3511 66.4551 40.1475 C66.4551 40.1475 65.0958 40.0235 63.9542 41.46 Z M63.8672 39.355 L65.1397 37.374 C65.1397 37.374 65.2823 37.2305 65.2061 37.1016 C65.0625 36.8609 63.5792 37.4556 63.5792 37.4556 C62.7667 37.8028 63.8672 39.355 63.8672 39.355 Z M62.8252 36.8506 L64.7012 33.8457 C62.8624 33.25 61.5196 35.0283 61.5196 35.0283 L62.8252 36.8506 Z M60.3575 34.2915 C61.0411 34.8291 61.5733 33.4654 61.5733 33.4654 C62.1045 32.0342 61.542 30.001 61.542 30.001 C60.1866 30.353 59.0557 33.0122 59.0557 33.0122 C58.9239 33.5571 60.3575 34.2915 60.3575 34.2915 Z M52.8526 30.6216 L53.8047 30.7495 C53.8047 30.7495 53.5928 29.732 54.0674 29.7276 C54.0674 29.7276 53.045 29.2612 52.8526 30.6216 Z M55.0176 29.6509 C54.6905 30.5191 55.169 31.2803 55.169 31.2803 L55.6456 31.4795 C56.9395 31.8086 56.2305 28.4854 56.2305 28.4854 C56.0206 27.8086 55.0176 29.6509 55.0176 29.6509 Z M59.0157 28.3931 C58.335 28.3994 57.4004 30.106 57.4004 30.106 C56.8663 31.1973 57.3497 32.1445 57.3497 32.1445 L57.8975 32.5469 C59.1924 33.0791 59.17 30.4981 59.17 30.4981 C59.2305 29.6143 59.4952 28.9326 59.4952 28.9326 C59.7598 28.1831 59.0157 28.3931 59.0157 28.3931 Z M44.2354 31.5806 C44.2354 31.5806 45.771 28.5781 47.0586 28.2276 C47.0586 28.2276 49.2208 26.917 49.8243 26.0293 C49.8243 26.0293 45.6216 27.0176 44.0279 31.1748 C44.0279 31.1748 43.8287 31.6524 44.2354 31.5806 Z M43.3331 29.4146 C43.0679 30.1646 43.8106 29.6826 43.8106 29.6826 C44.5469 28.4531 44.2012 27.7769 44.2012 27.7769 L43.3331 29.4146 Z M66.0049 27.5845 L66.0596 26.0894 C65.7803 25.2085 63.7374 24.7515 63.7374 24.7515 C63.7422 25.2945 66.0049 27.5845 66.0049 27.5845 Z M60.6661 23.0127 L62.5674 22.9961 C62.5674 22.9961 64.9971 21.208 65.0557 20.188 C65.0557 20.188 64.5762 19.7173 63.0899 20.6133 C63.0899 20.6133 59.8438 22.3404 60.6661 23.0127 Z M64.1358 23.6607 C64.1358 23.6607 66.3829 24.1846 68.1963 21.9946 C68.1963 21.9946 68.9356 20.9688 66.5645 21.6695 C66.5645 21.6695 63.9229 22.6436 64.1358 23.6607 Z M66.1827 24.5938 L69.3936 26.7398 C69.3936 26.7398 70.2813 27.2749 69.5938 26.2617 L68.3575 24.7783 C68.3575 24.7783 68.0811 24.3052 68.6934 24.3682 C68.6934 24.3682 69.8477 24.2217 69.2334 24.0239 C69.2334 24.0239 64.9512 23.6538 66.1827 24.5938 Z M50.1553 25.0747 C50.1553 25.0747 54.7315 20.2114 54.5713 17.4951 L54.3594 16.5469 C54.3594 16.5469 53.4874 17.9126 53.0157 18.3247 C53.0157 18.3247 49.0567 23.7261 48.8653 25.1543 C48.8653 25.1543 49.0059 25.6284 50.1553 25.0747 Z M53.6758 23.8213 C53.6758 23.8213 57.4561 21.0703 57.7022 18.2154 C57.7022 18.2154 57.4942 17.6734 56.8204 18.291 C56.8204 18.291 53.3819 21.3779 52.2481 23.7656 C52.2481 23.7656 52.0489 24.3115 53 24.167 C53 24.167 53.3389 24.0957 53.6758 23.8213 Z M58.2647 20.3164 C58.2647 20.3164 58.2647 20.3164 56.8506 21.7554 C55.4356 23.1948 56.0499 23.3921 56.0499 23.3921 C57.2745 23.5855 59.0333 22.687 59.0333 22.687 C62.0713 20.6226 61.5723 17.9776 61.5723 17.9776 C59.878 18.4678 58.2647 20.3164 58.2647 20.3164 Z M39.5645 33.4561 C39.5645 33.4561 28.7994 37.4912 36.4439 49.3115 C36.4439 49.3115 37.125 49.5093 36.6436 48.834 C36.1622 48.1597 36.1622 48.1597 36.1622 48.1597 L35.1954 46.4019 C35.1954 46.4019 34.8458 45.25 35.6675 45.9903 C36.4893 46.7295 36.4893 46.7295 36.4893 46.7295 L37.6534 47.8062 C37.6534 47.8062 38.5264 46.6436 35.6417 43.0689 C35.6417 43.0689 35.022 42.1231 35.9058 42.1836 C35.9058 42.1836 36.2466 42.3164 36.6592 42.8565 C37.0713 43.396 37.0713 43.396 37.0713 43.396 C37.0713 43.396 37.8707 44.3296 37.8213 43.729 C37.8213 43.729 38.0806 42.2998 35.6177 40.3521 C35.6177 40.3521 34.8575 38.9321 35.8135 39.4668 C35.8135 39.4668 36.9078 40.3408 37.3223 41.084 C37.3223 41.084 38.5533 41.9561 37.9971 40.5352 L36.6163 38.0337 C36.6163 38.0337 36.2012 37.1538 36.6065 36.8784 C36.6065 36.8784 37.2125 36.3296 37.5611 37.3457 C37.5611 37.3457 38.0489 38.7002 38.253 38.6987 C38.253 38.6987 38.5958 39.103 38.5167 37.8809 C38.5167 37.8809 38.625 34.7549 39.5674 33.7954 C39.5674 33.7954 40.2442 33.4492 39.5645 33.4561 Z M37.6177 28.3789 L39.8062 29.9898 C39.8062 29.9898 39.795 28.7671 37.8755 26.8145 C37.8755 26.8145 37.4654 26.4776 37.6084 27.292 C37.6084 27.292 37.8858 27.9683 37.6177 28.3789 Z M36.5923 27.6406 C36.5923 27.6406 37.1631 23.0161 34.0879 21.0049 C34.0879 21.0049 33.9542 21.21 34.2984 21.7505 C34.2984 21.7505 35.6744 23.7085 35.5557 25.6113 C35.5557 25.6113 35.0879 26.499 34.7442 26.0264 C34.7442 26.0264 34.8526 22.9688 33.3516 22.2349 C33.3516 22.2349 32.5372 22.2417 32.9698 25.1587 C32.9698 25.1587 33.0645 25.5186 33.5191 25.7652 C34.3482 26.2158 34.3379 26.2334 34.3379 26.2334 L36.5923 27.6406 Z M18.4083 30.043 C18.4083 30.043 22.1553 23.5557 25.2813 23.7324 C25.2813 23.7324 27.5201 23.4404 31.814 25.0337 C31.814 25.0337 32.1553 25.2339 32.0757 23.876 C32.0757 23.876 32.5162 19.9326 29.8526 18.2573 C29.8526 18.2573 30.4263 21.7163 28.0616 23.232 C28.0616 23.232 26.9805 23.853 27.0367 22.5615 L27.1602 21.1343 C27.1602 21.1343 27.3687 19.8643 24.8218 17.8262 C24.8218 17.8262 24.3868 17.4824 24.3472 17.9658 C24.3472 17.9658 24.0923 19.8706 24.7818 21.0191 C24.7818 21.0191 25.8545 22.7403 24.7979 22.854 C24.7979 22.854 24.3252 23.1973 23.5635 21.5064 C23.5635 21.5064 22.6558 18.7285 19.4009 19.4365 C19.4009 19.4365 18.918 19.6426 19.6792 20.1133 C19.6792 20.1133 20.545 20.5957 20.7793 21.5987 C20.7793 21.5987 21.1978 22.959 22.6944 23.1441 C22.6944 23.1441 23.4463 23.6807 22.6983 23.5518 C22.6983 23.5518 19.5645 22.5601 16.5118 22.9946 C16.5118 22.9946 15.9009 23.0684 16.5142 23.2661 C17.127 23.4649 17.127 23.4649 17.127 23.4649 L18.6275 24.1309 C18.6275 24.1309 14.3721 26.8858 14.938 29.3936 C14.938 29.3936 15.482 29.457 16.1553 28.7725 C16.8282 28.0864 16.8282 28.0864 16.8282 28.0864 L19.6587 25.5484 L19.8658 25.8862 C19.8658 25.8862 17.6475 28.5547 18.1373 30.1133 L18.4083 30.043 Z M37.1817 32.8662 C37.1817 32.8662 36.7056 32.7344 36.2369 33.5532 L36.0357 33.8267 C36.0357 33.8267 37.0494 33.2744 37.1817 32.8662 Z M31.8692 38.9585 C32.4717 37.9341 32.1226 36.918 32.1226 36.918 C31.2515 38.2852 31.8692 38.9585 31.8692 38.9585 Z M32.1504 47.7197 C32.8165 46.2188 33.6304 46.0762 33.6304 46.0762 C33.7403 43.1538 32.7891 43.0943 32.7891 43.0943 C31.5162 45.1431 32.1504 47.7197 32.1504 47.7197 Z M29.2505 42.4463 L29.3365 44.4155 C29.3365 44.4155 30.6143 42.978 29.2505 42.4463 Z M31.9595 41.5391 C33.7212 40.9805 33.0982 39.627 33.0982 39.627 C31.7413 39.8433 31.9595 41.5391 31.9595 41.5391 Z M33.9327 34.1167 L35.7452 31.7241 C35.7452 31.7241 36.419 31.1065 34.7227 31.3252 C34.7227 31.3252 32.5264 28.7627 31.0308 28.6406 C31.0308 28.6406 30.898 28.9815 31.1749 29.5899 C31.1749 29.5899 31.9429 31.961 31.5372 32.1685 C31.1314 32.3755 31.1314 32.3755 31.1314 32.3755 C31.1314 32.3755 28.5967 29.8848 26.7627 29.9688 C26.7627 29.9688 27.1817 31.2559 28.6866 32.3975 C28.6866 32.3975 29.9874 33.5405 29.313 34.0899 C29.313 34.0899 28.9761 34.4331 28.0865 33.6934 C28.0865 33.6934 26.1001 31.8091 23.1128 32.0391 C23.1128 32.0391 26.5235 33.6392 27.2818 34.9234 C27.2818 34.9234 27.5616 35.8037 26.6763 35.5405 C26.6763 35.5405 22.0381 33.4072 20.2881 35.2564 C20.2881 35.2564 24.2374 36.2407 24.9317 38.001 C24.9317 38.001 24.9375 38.6802 23.6456 38.5562 C23.6456 38.5562 19.0181 37.5772 17.4283 42.1431 C17.4283 42.1431 17.2471 42.814 17.9737 42.4121 L18.6509 42.1323 C18.6509 42.1323 19.7852 41.9424 20.6143 41.3672 C20.6143 41.3672 21.9673 40.7446 22.1084 41.3545 C22.1084 41.3545 22.1924 41.7432 21.774 41.9009 C21.774 41.9009 19.6158 42.793 19.629 45.2481 L19.65 47.5581 C19.65 47.5581 19.8614 48.439 20.3311 47.7554 C20.3311 47.7554 22.5459 44.7471 22.5982 42.981 L22.5914 42.2334 C22.5914 42.2334 23.4048 42.0225 23.3428 42.7027 L23.2867 43.9932 C23.2867 43.9932 23.233 45.5044 25.3526 47.168 C25.3526 47.168 26.0386 47.9092 25.962 46.9585 C25.8858 46.0078 25.8858 46.0078 25.8858 46.0078 C25.8858 46.0078 25.627 43.9639 24.9083 43.0283 C24.9083 43.0283 24.2051 40.3174 25.4253 40.0347 C25.4253 40.0347 26.6001 42.3335 27.7574 42.5957 C27.7574 42.5957 28.6431 42.8584 27.4419 37.6387 C27.4419 37.6387 27.2945 36.2822 27.7007 36.2105 C27.7007 36.2105 28.4439 35.728 28.6602 37.1524 C28.6602 37.1524 28.608 38.9195 29.8365 39.52 C29.8365 39.52 30.9175 38.8989 30.897 36.5899 C30.897 36.5899 31.0728 33.395 32.5591 32.499 C32.5591 32.499 33.2354 32.085 33.3077 32.6279 C33.3077 32.6279 33.3956 34.8696 33.9327 34.1167 Z M37.2071 20.2988 C37.2071 20.2988 33.4029 12.6558 25.9917 11.8384 C25.9917 11.8384 25.4488 11.9112 26.606 12.1724 C26.606 12.1724 32.5962 13.6143 36.7305 20.167 C36.7305 20.167 37.0772 20.979 37.2071 20.2988 Z M33.7325 19.1743 C33.7325 19.1743 33.7325 19.1743 34.6231 20.0493 C35.5137 20.9248 35.5093 20.3819 35.5093 20.3819 L33.3838 18.1582 C32.9795 18.5694 33.7325 19.1743 33.7325 19.1743 Z M19.7432 12.0293 C18.5264 12.7193 19.4805 13.0503 19.4805 13.0503 L21.711 11.7403 C21.2334 11.5405 19.7432 12.0293 19.7432 12.0293 Z M39.2559 21.5708 C39.2559 21.5708 39.8404 18.5093 39.0772 16.749 C39.0772 16.749 38.8003 16.1406 38.4712 17.3662 C38.4712 17.3662 37.6744 19.3433 38.7813 21.6426 C38.7813 21.6426 39.0621 22.6592 39.2559 21.5708 Z M35.8023 15.0806 C35.2022 16.4439 35.8863 16.9815 35.8863 16.9815 C36.2989 17.4536 37.0542 18.3975 37.0542 18.3975 C37.9395 18.6616 37.3033 15.8145 37.3033 15.8145 C36.9542 14.7984 36.875 13.5083 36.875 13.5083 C36.6646 12.7632 35.8023 15.0806 35.8023 15.0806 Z M33.5523 14.1489 L34.5811 15.2945 C34.5811 15.2945 35.0635 16.0376 35.25 14.1338 C35.25 14.1338 35.9698 11.0025 35.0752 9.7207 C35.0752 9.7207 33.8633 10.9536 33.8082 12.3804 C33.8082 12.3804 33.8184 13.5352 33.5523 14.1489 Z M32.3213 13.209 C32.3213 13.209 34.1417 11.6299 32.8262 8.8565 L32.1319 7.1651 C32.1319 7.1651 31.5811 6.354 31.3877 7.5112 C31.3877 7.5112 31.1612 8.8941 31.1377 10.0264 C31.1377 10.0264 31.1568 12.8823 32.3213 13.209 Z M30.3399 12.0034 C30.3399 12.0034 30.9214 8.6021 28.4668 7.5371 C28.4668 7.5371 27.7837 7.1348 28.0616 7.7442 C28.0616 7.7442 28.5445 8.6231 28.483 9.3028 C28.483 9.3028 29.1192 12.1504 30.3399 12.0034 Z M28.1592 11.1397 C28.1592 11.1397 28.2632 7.5381 24.9341 7.5 C24.9341 7.5 24.6646 7.7056 24.9415 8.315 C24.9415 8.315 25.918 11.1597 27.6861 11.416 C27.6861 11.416 28.1045 11.5274 28.1592 11.1397 Z M24.3487 10.4258 C24.3487 10.4258 23.5899 9.1426 21.8951 9.4971 C21.8951 9.4971 21.625 9.7031 21.899 9.9727 C21.899 9.9727 22.5098 10.5498 23.7393 10.6348 C23.7393 10.6348 24.5245 10.6904 24.3487 10.4258 Z"
           transform="translate(58.4804, 1.4394)"
           id="path4464" />
        <path
           style="fill:#ac5341; fill-rule:nonzero;stroke:none;"
           d="M2.4888 50.4238 C2.4888 50.4238 2.4888 50.4238 1.7412 50.4306 C0.9942 50.437 1.0664 50.9121 1.0664 50.9121 L1.0738 51.7944 C1.4209 52.6069 1.0855 53.0849 1.0855 53.0849 C1.0855 53.0849 1.0855 53.0849 1.0977 54.5117 C1.1104 55.9385 1.3828 56.0034 1.3828 56.0034 L2.0005 56.6777 C2.0005 56.6777 2.0127 56.665 2.7544 57.4184 C3.3291 58.0019 3.5039 57.6831 3.5039 57.6831 C4.041 56.9995 3.7549 55.3716 3.7549 55.3716 C3.6128 54.6255 3.7261 52.1113 3.7261 52.1113 C3.7261 52.1113 3.7261 52.1113 3.7188 51.2964 C3.7119 50.4809 2.9649 50.4878 2.9649 50.4878 L2.4888 50.4238 Z M3.0254 49.6719 C3.0254 49.6719 3.8042 49.4609 3.627 48.5796 C3.5537 47.9687 3.5537 47.9687 3.5537 47.9687 C3.5537 47.9687 3.461 45.1167 3.5923 44.6401 C3.5923 44.6401 3.752 43.4497 2.9024 43.4233 L1.8833 43.4326 C1.8833 43.4326 1.065 43.1001 1.0752 44.1865 C1.0752 44.1865 1.0469 44.8657 1.0166 45.3423 C1.0166 45.3423 0.8199 46.0913 0.9717 47.8555 C0.9717 47.8555 0.8511 49.623 1.5308 49.6172 C1.5308 49.6172 2.6172 49.6416 3.0254 49.6719 Z M1.0459 38.5273 C0.9156 39.0224 0.9785 40.9946 0.9785 40.9946 C0.9785 40.9946 0.9785 40.9946 0.917 41.7422 C0.856 42.4907 1.3296 42.2827 1.3296 42.2827 C1.7359 42.1426 1.9419 42.4131 1.9419 42.4131 C3.0996 42.6743 3.231 42.1972 3.231 42.1972 C3.8316 40.9692 3.274 39.3442 3.274 39.3442 C3.1309 38.5303 3.1905 37.5786 3.1905 37.5786 C3.1905 37.5786 3.1587 37.7441 3.2207 37.2046 C3.252 36.9326 2.8784 36.8681 2.8784 36.8681 C2.7046 36.9966 2.437 36.8374 2.437 36.8374 C2.1641 36.772 1.8252 36.8432 1.8252 36.8432 C0.7027 36.6836 1.0459 38.5273 1.0459 38.5273 Z M0.7476 30.1958 L0.8257 31.3501 C0.7657 32.2671 0.7139 34.0683 0.7139 34.0683 C0.6626 35.9707 1.8174 35.9604 1.8174 35.9604 L2.7681 35.9516 C3.4473 35.9458 3.2915 33.7055 3.2915 33.7055 C3.148 32.8237 3.128 30.5146 3.128 30.5146 C2.7178 30.1782 0.7476 30.1958 0.7476 30.1958 Z M0.9634 23.8764 C0.147 23.7475 0.4927 24.4233 0.4927 24.4233 C0.4927 24.4233 0.5054 24.5434 0.5323 25.103 C0.5743 25.9521 0.5865 27.3442 0.5865 27.3442 C0.3623 29.8198 2.0327 29.5732 2.0327 29.5732 C3.3233 29.562 3.1763 28.3398 3.1763 28.3398 C2.9615 27.0517 3.1475 25.0796 3.1475 25.0796 C3.2119 24.6714 3.2764 24.2641 3.2764 24.2641 C2.9326 23.2832 1.8457 23.8008 1.8457 23.8008 L0.9634 23.8764 Z M1.4317 15.3808 C1.2285 15.4507 0.6836 15.2519 0.6836 15.2519 C0.3775 15.2202 0.42 16.2051 0.42 16.2051 L0.4571 20.416 C0.4571 20.416 0.4571 20.416 0.5391 21.9775 C0.6206 23.5395 2.1778 22.9145 2.1778 22.9145 C2.6524 22.8423 2.9156 21.8891 2.9156 21.8891 L2.7964 16.0483 C2.856 15.0962 1.4317 15.3808 1.4317 15.3808 Z M1.7085 8.2456 C1.2334 8.2837 0.9619 8.3198 0.9619 8.3198 C0.1094 7.9883 0.2964 9.8203 0.2964 9.8203 C0.4356 10.2949 0.2491 12.1987 0.2491 12.1987 C0.0625 14.1704 0.9468 14.2983 0.9468 14.2983 C1.5235 14.2593 1.7632 14.4267 1.7632 14.4267 C2.8521 14.6889 2.7071 13.6714 2.7071 13.6714 L2.6704 9.4595 C2.7915 7.8291 1.7085 8.2456 1.7085 8.2456 Z M2.1817 0.2939 C1.7071 0.3999 1.3662 0.2671 1.3662 0.2671 C0.7867 0 0.6201 0.3755 0.6201 0.3755 C0.7168 1.293 0.5689 2.2773 0.5689 2.2773 C0.7183 3.8388 0.3907 5.2002 0.3907 5.2002 C0 7.1059 1.085 6.8921 1.085 6.8921 L1.3228 6.8569 L1.7652 6.9888 C2.7852 7.1152 2.5034 5.9966 2.5034 5.9966 C2.2876 4.5727 2.5967 1.1055 2.5967 1.1055 C2.8184 0.1743 2.1817 0.2939 2.1817 0.2939 Z M14.334 7.3193 L13.7217 7.1211 C12.9063 7.1284 13.5948 8.2085 13.5948 8.2085 L14.4229 9.6279 L15.5703 8.8027 C15.2295 8.7378 14.334 7.3193 14.334 7.3193 Z M13.1592 12.6963 C12.4844 13.313 13.1719 14.2583 13.1719 14.2583 C13.1719 14.2583 13.1719 14.2583 13.585 14.73 C13.9961 15.2016 14.8086 14.9228 14.8086 14.9228 C15.6192 14.3721 14.5948 13.77 14.5948 13.77 C14.3916 13.772 13.7041 12.895 13.7041 12.895 L13.1592 12.6963 Z M14.0215 10.3789 C13.4795 10.4512 13.9668 11.8056 13.9668 11.8056 L14.5157 12.48 C14.5157 12.48 14.5157 12.48 15.0625 12.8828 C15.6094 13.2851 15.7432 12.9453 15.7432 12.9453 C15.6719 12.6738 16.0762 12.3305 16.0762 12.3305 C16.4815 11.9194 16 11.4482 16 11.4482 L15.042 10.5054 C14.3594 10.1723 14.0215 10.3789 14.0215 10.3789 Z M11.5039 9.8569 C11.5039 9.8569 12.7305 10.2539 13.0664 9.8437 C13.0664 9.8437 13.0635 7.4995 11.4883 8.1596 C11.0909 8.3257 10.8203 9.3877 11.5039 9.8569 Z M11.834 16.4433 C11.834 16.4433 11.834 16.4433 12.1094 16.8486 C12.3838 17.2544 12.5928 17.7959 12.5928 17.7959 L13.0723 18.2671 C13.6866 18.6011 14.0879 17.8506 14.0879 17.8506 C14.8887 16.2812 12.4356 15.352 12.4356 15.352 C11.21 15.1587 11.834 16.4433 11.834 16.4433 Z M9.7256 16.1225 C9.5928 16.6001 10.002 16.7993 10.002 16.7993 C9.7364 17.4131 10.6241 17.9497 10.6241 17.9497 C11.5088 18.145 11.501 17.2622 11.501 17.2622 C11.2119 15.2944 10.2608 15.2353 10.2608 15.2353 C9.9209 15.1699 9.7256 16.1225 9.7256 16.1225 Z M7.168 11.1186 C6.8096 12.1318 7.4532 12.5425 7.4532 12.5425 L8.4639 11.6504 C9.3409 11.0996 9.0635 10.2866 9.0635 10.2866 C8.8535 9.6772 8.3116 9.8857 8.3116 9.8857 C7.2295 10.3711 7.168 11.1186 7.168 11.1186 Z M10.7774 12.2417 C10.0401 13.3349 11.1338 14.208 11.1338 14.208 C11.7451 14.2031 11.8047 13.1836 11.8047 13.1836 C11.8223 12.8735 11.8672 12.5708 11.8672 12.5708 C12.1983 11.686 11.4512 11.624 11.4512 11.624 C10.9746 11.4927 10.7774 12.2417 10.7774 12.2417 Z M7.5371 14.4438 C7.8194 15.5957 8.9014 15.043 8.9014 15.043 C9.46 14.8481 9.3008 14.2241 9.3008 14.2241 C10.2471 13.7402 9.5606 12.9311 9.5606 12.9311 C9.2354 12.2451 8.3389 13.0097 8.3389 13.0097 C7.7325 13.4228 7.5371 14.4438 7.5371 14.4438 Z M12.5625 6.5874 C13.17 6.3105 12.5567 5.9761 12.5567 5.9761 C12.0137 6.1167 11.7393 5.6435 11.7393 5.6435 C11.1895 5.105 10.9922 5.7182 10.9922 5.7182 C10.7989 7.0102 12.5625 6.5874 12.5625 6.5874 Z M8.0264 8.2583 C8.0323 8.937 8.9737 7.9101 8.9737 7.9101 C8.9698 7.5024 9.4414 7.0908 9.4414 7.0908 C9.2344 6.7529 9.0323 6.8222 9.0323 6.8222 C7.9532 6.7759 8.0264 8.2583 8.0264 8.2583 Z M10.1446 9.8691 C10.9698 9.8115 10.5205 8.0361 10.0606 8.0361 C9.5996 8.0361 8.916 9.9551 10.1446 9.8691 Z M9.4102 11.7915 C9.5498 12.209 11.0176 11.3179 10.7998 10.7798 C10.5821 10.2417 9.2715 11.374 9.4102 11.7915 Z"
           transform="translate(99.4853, 60.1118)"
           id="path4466" />
      </g>
      <g
         id="Group5"
         clip-path="url(#Clip5)">
        <path
           style="fill:#3771c8;fill-rule:nonzero;stroke:none"
           d="M141.644 4.8994 C138.563 6.6777 136.529 7.8526 131.674 7.8526 C126.82 7.8526 124.784 6.6768 121.704 4.8994 C117.922 2.7158 113.215 0 104.466 0 C95.7163 0 91.0083 2.7158 87.227 4.8994 C84.146 6.6768 82.1108 7.8526 77.2553 7.8526 C72.3994 7.8526 70.3637 6.6768 67.2827 4.8994 C63.5009 2.7158 58.7939 0 50.0439 0 C41.2939 0 36.5874 2.7158 32.8051 4.8994 C29.7246 6.6768 27.6889 7.8526 22.8335 7.8526 C17.9765 7.8526 15.9409 6.6768 12.8593 4.8994 C9.7636 3.1123 6.0444 0.9707 0 0.252 C0.5307 5.3203 1.2993 10.2412 2.2753 15.0127 C3.373 15.4854 4.4057 16.0791 5.5932 16.7637 C9.3754 18.9473 14.0835 21.6631 22.8335 21.6631 C31.583 21.6631 36.29 18.9473 40.0722 16.7637 C43.1528 14.9863 45.1884 13.8125 50.0439 13.8125 C54.8999 13.8125 56.9355 14.9863 60.0166 16.7637 C63.7983 18.9473 68.5053 21.6631 77.2553 21.6631 C86.0044 21.6631 90.7114 18.9473 94.4936 16.7637 C97.5747 14.9863 99.6098 13.8125 104.466 13.8125 C109.32 13.8125 111.355 14.9863 114.437 16.7637 C118.218 18.9473 122.924 21.6631 131.674 21.6631 C140.423 21.6631 145.13 18.9473 148.912 16.7637 C150.419 15.8945 151.679 15.169 153.139 14.6553 C154.085 9.9688 154.831 5.1387 155.35 0.166 C148.804 0.7774 144.88 3.0322 141.644 4.8994 Z"
           transform="translate(26.2759, 258.969)"
           id="path4469" />
        <path
           style="fill:#3771c8;fill-rule:nonzero;stroke:none"
           d="M136.17 4.8984 C133.089 6.6777 131.055 7.8505 126.2 7.8505 C121.346 7.8505 119.31 6.6757 116.229 4.8984 C112.448 2.7158 107.741 0 98.9922 0 C90.2422 0 85.5342 2.7158 81.7529 4.8984 C78.6719 6.6757 76.6367 7.8505 71.7812 7.8505 C66.9253 7.8505 64.8896 6.6757 61.8086 4.8984 C58.0268 2.7158 53.3198 0 44.5698 0 C35.8198 0 31.1133 2.7158 27.331 4.8984 C24.2505 6.6757 22.2148 7.8505 17.3594 7.8505 C12.5024 7.8505 10.4668 6.6757 7.3852 4.8984 C5.3535 3.7265 3.0483 2.4033 0 1.4267 C1.9258 7.9375 4.2265 14.1289 6.8003 20.0039 C9.5576 20.9707 12.9424 21.664 17.3594 21.664 C26.1089 21.664 30.8159 18.9472 34.5981 16.7646 C37.6787 14.9863 39.7143 13.8115 44.5698 13.8115 C49.4258 13.8115 51.4614 14.9863 54.5425 16.7646 C58.3242 18.9472 63.0312 21.664 71.7812 21.664 C80.5303 21.664 85.2373 18.9472 89.0195 16.7646 C92.1006 14.9863 94.1357 13.8115 98.9922 13.8115 C103.846 13.8115 105.881 14.9863 108.963 16.7646 C112.744 18.9472 117.45 21.664 126.2 21.664 C131.155 21.664 134.812 20.7919 137.74 19.6396 C140.287 13.79 142.562 7.6289 144.467 1.1523 C140.956 2.1445 138.398 3.6123 136.17 4.8984 Z"
           transform="translate(31.75, 285.384)"
           id="path4471" />
        <path
           style="fill:#3771c8;fill-rule:nonzero;stroke:none"
           d="M30.8413 13.8125 C35.6973 13.8125 37.7329 14.9873 40.814 16.7647 C44.5957 18.9473 49.3027 21.6641 58.0527 21.6641 C66.8018 21.6641 71.5088 18.9473 75.291 16.7647 C78.3721 14.9873 80.4072 13.8125 85.2637 13.8125 C90.1172 13.8125 92.1523 14.9873 95.2344 16.7647 C98.3711 18.5752 102.152 20.7481 108.343 21.4385 C111.358 17.0283 114.277 12.333 117.029 7.3643 C115.779 7.6787 114.334 7.8526 112.472 7.8526 C107.617 7.8526 105.581 6.6768 102.501 4.8994 C98.7197 2.7168 94.0127 0 85.2637 0 C76.5137 0 71.8057 2.7168 68.0244 4.8994 C64.9434 6.6768 62.9082 7.8526 58.0527 7.8526 C53.1968 7.8526 51.1611 6.6768 48.0801 4.8994 C44.2983 2.7168 39.5913 0 30.8413 0 C22.0913 0 17.3848 2.7168 13.6025 4.8994 C10.522 6.6768 8.4863 7.8526 3.6309 7.8526 C2.21 7.8526 1.0347 7.749 0 7.5615 C2.6987 12.4229 5.5571 17.0215 8.5088 21.3467 C14.2588 20.5713 17.8603 18.501 20.8696 16.7647 C23.9502 14.9873 25.9858 13.8125 30.8413 13.8125 Z"
           transform="translate(45.4785, 311.798)"
           id="path4473" />
        <path
           style="fill:#3771c8;fill-rule:nonzero;stroke:none"
           d="M86.3994 4.3428 C82.7715 2.2803 78.1514 0 70.1309 0 C61.3809 0 56.6729 2.7159 52.8916 4.8985 C49.8106 6.6758 47.7754 7.8506 42.9199 7.8506 C38.064 7.8506 36.0283 6.6758 32.9473 4.8985 C29.1655 2.7159 24.4585 0 15.7085 0 C8.0967 0 3.5459 2.0557 0 4.0274 C3.0376 7.9453 6.1108 11.5967 9.1494 14.9717 C10.8755 14.2412 12.7778 13.8106 15.7085 13.8106 C20.5645 13.8106 22.6001 14.9864 25.6812 16.7637 C29.4629 18.9473 34.1699 21.6631 42.9199 21.6631 C51.669 21.6631 56.376 18.9473 60.1582 16.7637 C63.2393 14.9864 65.2744 13.8106 70.1309 13.8106 C73.3838 13.8106 75.3711 14.3409 77.2559 15.2246 C80.29 11.8672 83.3613 8.2412 86.3994 4.3428 Z"
           transform="translate(60.6113, 338.214)"
           id="path4475" />
        <path
           style="fill:#3771c8;fill-rule:nonzero;stroke:none"
           d="M0 0 C0 0 0.0084 8.2754 0.0386 9.5264 C2.5733 9.9736 4.2466 10.9316 6.4429 12.2002 C10.2251 14.3828 14.9332 17.0986 23.6832 17.0986 C32.4327 17.0986 37.1397 14.3828 40.9219 12.2002 C44.0025 10.4219 46.0381 9.2471 50.8936 9.2471 C55.7496 9.2471 57.7852 10.4219 60.8663 12.2002 C64.648 14.3828 69.355 17.0986 78.105 17.0986 C86.8541 17.0986 91.5611 14.3828 95.3433 12.2002 C98.4244 10.4219 100.459 9.2471 105.316 9.2471 C110.17 9.2471 112.205 10.4219 115.287 12.2002 C119.068 14.3828 123.774 17.0986 132.524 17.0986 C141.273 17.0986 145.98 14.3828 149.761 12.2002 C152.191 10.7969 153.975 9.7725 157.002 9.4023 C157.029 8.1924 157.046 0 157.046 0 L0 0 Z"
           transform="translate(25.4262, 237.119)"
           id="path4477" />
      </g>
    </g>
  </g>
  <rect
     style="fill:#161413;fill-opacity:1;stroke:none"
     id="rect4483"
     width="5.0793982"
     height="7.3846159"
     x="182.48195"
     y="207.84615" />
</svg>
